<?xml version="1.0" standalone="no"?>
<!DOCTYPE svg PUBLIC "-//W3C//DTD SVG 1.1//EN" "http://www.w3.org/Graphics/SVG/1.1/DTD/svg11.dtd" >
<svg xmlns="http://www.w3.org/2000/svg">
<metadata>Generated by IcoMoon</metadata>
<defs>
<font id="icomoon" horiz-adv-x="1024">
<font-face units-per-em="1024" ascent="960" descent="-64" />
<missing-glyph horiz-adv-x="1024" />
<glyph unicode="&#x20;" d="" horiz-adv-x="512" />
<glyph unicode="&#x21;" d="M972.8 192l-384 672c-44.8 83.2-108.8 83.2-153.6 0l-384-672c-44.8-83.2 0-153.6 96-153.6h736c89.6 0 134.4 70.4 89.6 153.6zM467.2 614.4c0 25.6 19.2 44.8 44.8 44.8h19.2c25.6 0 44.8-19.2 44.8-44.8v-256c0-25.6-19.2-44.8-44.8-44.8h-19.2c-25.6 0-44.8 19.2-44.8 44.8v256zM582.4 198.4c0-25.6-25.6-51.2-51.2-51.2h-19.2c-25.6 0-51.2 25.6-51.2 51.2v19.2c0 25.6 25.6 51.2 51.2 51.2h19.2c25.6 0 51.2-25.6 51.2-51.2v-19.2z" />
<glyph unicode="&#x2b;" d="M919.014 576.9h-276.232v274.188c0 28.79-22.132 51.804-50.886 51.804h-157.028c-28.748 0.002-50.49-23.018-50.49-51.804v-274.19l-276.626 0.002c-28.79 0-53.342-24.178-53.342-52.972v-156.984c0-28.79 24.554-52.424 53.342-52.424l276.626-0.002v-274.73c0-28.724 21.742-51.266 50.494-51.266h157.028c28.764 0 50.886 22.542 50.886 51.266l-0.004 274.726h276.232c28.79 0 53.738 23.628 53.738 52.424v156.984c0.002 28.798-24.948 52.978-53.738 52.978z" />
<glyph unicode="&#x2d;" d="M25.35 545.316c0 23.792 20.756 42.94 44.548 42.94l888.418 0.004c23.796 0 44.548-19.152 44.548-42.94v-195.858c0-23.786-20.754-44.722-44.548-44.722l-888.416-0.004c-23.792 0-44.548 20.936-44.548 44.722l-0.002 195.858z" />
<glyph unicode="&#x3f;" d="M513.050 931.988c-267.702 0-485.448-217.742-485.448-485.436 0-267.676 217.748-485.456 485.448-485.456 267.674 0 485.456 217.776 485.456 485.456 0 267.694-217.782 485.436-485.456 485.436zM574.156 179.182c0-13.794-6.904-26.324-18.634-37.21-11.592-10.75-27.572-16.186-46.594-16.186-19.608 0-35.068 5.396-47.274 16.070-12.518 10.88-18.13 23.444-18.13 37.322v23.868c0 13.88 5.424 26.444 17.896 37.308 12.204 10.642 27.9 16.040 47.504 16.040 19.022 0 35.238-5.474 46.83-16.19 11.704-10.88 18.398-23.41 18.398-37.162v-23.864l0.004 0.002zM703.762 536.718c-7.654-15.032-17.482-28.254-29.166-39.362-11.454-10.836-23.972-20.606-37.244-29.072-12.686-8.058-24.638-16.808-35.478-25.962-10.642-8.964-19.366-18.996-26.338-29.818-6.614-10.324-9.81-23.25-9.81-38.362v-15.004c0-9.934-5.066-20.35-14.684-31.030-9.754-10.756-22.914-16.54-38.808-17.194l-3.346-0.082c-16.144 0-29.32 4.63-39.104 13.79-10.51 9.802-15.816 20.828-15.816 32.744 0 27.832 3.864 51.548 11.516 70.506 7.588 18.79 16.98 35.128 27.93 48.548 10.944 13.374 23.254 25.054 36.588 34.766 12.746 9.216 24.52 18.348 35.008 27.068 10.12 8.444 18.834 17.472 25.898 26.74 6.476 8.568 9.646 18.984 9.646 31.744 0 21.054-5.708 36.122-17.508 46.076-11.926 10.096-28.462 15.226-49.078 15.226-13.744 0-25.546-0.852-35.074-2.55-9.28-1.636-17.868-4.39-25.536-8.226-7.586-3.756-14.724-8.998-21.222-15.524-6.84-6.808-14.014-15.446-21.398-25.668-6.63-9.326-16.478-16.386-29.226-20.956-13.068-4.722-27.578-3.442-42.726 3.808-13.606 6.78-21.912 15.642-24.748 26.414-2.646 9.856-2.646 20.228-0.022 30.72 1.926 8.946 7.264 19.97 16.374 33.46 8.916 13.226 21.596 26.076 37.74 38.272 16.072 12.12 36.452 22.722 60.488 31.432 24.21 8.75 53.214 13.182 86.202 13.182 32.53 0 60.766-4.918 83.84-14.652 23.23-9.79 42.182-22.836 56.328-38.82 14.106-15.962 24.524-34.318 30.954-54.508 6.364-20.016 9.598-40.906 9.598-62.108 0.014-21.558-3.95-40.298-11.778-55.598z" />
<glyph unicode="&#x40;" d="M1020.032 834.112c0.128 5.504-4.096 9.92-9.664 9.92l-54.272 0.064c-5.568 0-9.792-4.416-9.664-9.92 3.968-119.168 6.208-238.976 6.464-359.040-25.856-1.024-51.84-1.792-77.696-2.496-62.016 245.44-201.216 369.984-485.504 370.24 7.616-197.44 114.88-349.056 280.768-371.456-34.624 0.512-68.608 1.216-101.12 2.304v0.064c-40.384 32.576-302.016 206.912-564.672-17.344 143.808-143.872 405.504-188.352 544.768-38.016 45.12 1.728 93.44 2.88 142.784 3.264-63.616-11.008-265.472-83.968-316.48-369.152 343.872-2.752 464.512 122.048 500.544 367.616 25.472-0.64 51.072-1.408 76.544-2.432-0.32-118.336-2.432-231.232-6.336-349.248-0.128-5.44 4.16-4.928 9.6-4.928h54.208c5.568 0 9.792-0.512 9.6 4.928-4.16 127.936-6.4 253.184-6.4 381.568 0.064 129.344 2.24 255.808 6.528 384.064zM515.392 781.952c158.4-8.96 249.344-146.56 281.344-293.056-127.36-22.336-281.344 44.16-281.344 293.056zM157.44 471.040c132.736 120.256 284.8 45.696 335.36-45.504-131.072-115.392-316.864-14.080-335.36 45.504zM495.744 125.44c22.72 164.096 155.776 285.504 281.344 296.32 6.528-0.064 12.992-0.064 19.584-0.192-19.84-182.656-98.432-316.096-300.928-296.128z" />
<glyph unicode="&#x47;" d="M92.66 675.61c0-77.976 26.040-134.084 77.386-167.156 42.022-27.076 90.84-31.054 116.186-31.054 6.152 0 11.092 0.262 14.538 0.508 0 0-8.060-52.336 30.794-104.19l-1.754 0.030c-67.292 0-286.776-14.068-286.776-194.488 0-183.598 201.584-192.888 242.018-192.888 3.156 0 5.012 0.040 5.012 0.040 0.452 0 3.346-0.12 8.262-0.12 25.96 0 93.044 3.258 155.338 33.562 80.81 39.232 121.812 107.464 121.812 202.79 0 92.152-62.454 146.956-108.050 187.048-27.832 24.402-51.872 45.508-51.872 66.002 0 20.902 17.552 36.6 39.76 56.478 35.966 32.16 69.852 77.954 69.852 164.494 0 76.054-9.864 127.118-70.626 159.542 6.34 3.22 28.802 5.582 39.896 7.124 32.934 4.488 81.192 9.59 81.192 36.504v4.51h-240.214c-2.406 0.002-242.754-8.636-242.754-228.736zM480.168 205.47c4.588-73.428-58.216-127.58-152.502-134.46-95.778-6.994-174.626 36.112-179.216 109.438-2.218 35.238 13.274 69.782 43.596 97.27 30.77 27.87 72.996 45.056 118.94 48.448 5.422 0.32 10.81 0.544 16.166 0.544 88.644 0 148.676-52.094 153.016-121.24zM417.49 726.186c23.548-82.826-12.012-169.446-68.678-185.408-6.506-1.82-13.256-2.756-20.062-2.756-51.916 0-103.362 52.526-122.406 124.85-10.648 40.642-9.79 76.16 2.426 110.336 12.010 33.61 33.562 56.302 60.704 63.946 6.524 1.83 13.292 2.778 20.084 2.778 62.68-0.004 102.97-25.98 127.932-113.746zM819.636 548.094v156.166h-97.604v-156.166h-156.166v-102.484h156.166v-156.166h97.604v156.166h161.046v102.484h-161.046z" />
<glyph unicode="&#x50;" d="M441.662 297.856c-22.354-117.146-49.636-229.444-130.454-288.092-24.936 177.036 36.636 309.986 65.242 451.16-48.76 82.074 5.872 247.26 108.71 206.556 126.536-50.080-109.6-305.15 48.926-337.006 165.5-33.244 233.070 287.15 130.436 391.372-148.284 150.454-431.624 3.426-396.786-211.99 8.474-52.684 62.874-68.644 21.724-141.326-94.904 21.032-123.234 95.88-119.578 195.688 5.868 163.342 146.766 277.682 288.080 293.502 178.722 20.018 346.438-65.598 369.6-233.72 26.098-189.746-80.644-395.274-271.766-380.486-51.784 4-73.538 29.672-114.134 54.342z" />
<glyph unicode="&#x54;" d="M884.37 637.108c0.418-8.242 0.558-16.574 0.558-24.864 0-253.81-193.156-546.436-546.41-546.436-108.438 0-209.366 31.824-294.318 86.316 14.984-1.822 30.256-2.696 45.742-2.696 90.010 0 172.832 30.714 238.568 82.206-84.034 1.554-154.976 57.064-179.42 133.388 11.728-2.21 23.78-3.502 36.16-3.502 17.462 0 34.45 2.404 50.564 6.75-87.856 17.706-154.058 95.3-154.058 188.332 0 0.852 0 1.63 0.054 2.422 25.836-14.414 55.49-23 86.974-24.044-51.55 34.442-85.44 93.26-85.44 159.894 0 35.142 9.442 68.158 25.978 96.488 94.68-116.156 236.218-192.616 395.85-200.636-3.298 14.082-4.988 28.724-4.988 43.76 0 106.088 85.992 192.006 192.042 192.006 55.214 0 105.122-23.31 140.184-60.608 43.756 8.612 84.854 24.602 121.974 46.57-14.394-44.826-44.838-82.454-84.456-106.244 38.832 4.692 75.89 14.992 110.286 30.228-25.73-38.448-58.28-72.258-95.844-99.33z" />
<glyph unicode="&#x66;" d="M880.244 939.772h-737.62c-67.626 0-121.66-55.896-121.66-123.526v-737.614c0-67.604 54.034-123.3 121.66-123.3h375.036v353.5h-120.82v152.138h120.82v77.954c0 118.648 85.602 212.91 197.448 212.91l106.836 0.002v-174.514h-95.41c-25.4 0-34.35-14.888-34.35-35.050l-0.008-81.294h129.764v-152.138h-129.764v-353.504h188.074c67.616 0 120.688 55.698 120.688 123.312l-0.008 737.598c0 67.63-53.076 123.526-120.686 123.526z" />
<glyph unicode="&#x69;" d="M511.936 960c-282.24 0-511.936-229.632-511.936-512s229.632-512 511.936-512c282.368 0 512.064 229.632 512.064 512s-229.696 512-512.064 512zM512.832 759.104c47.68 0 86.528-38.784 86.528-86.528s-38.848-86.464-86.528-86.464-86.528 38.784-86.528 86.528 38.848 86.464 86.528 86.464zM645.504 152.832c-8.96-9.472-18.56-11.584-25.024-11.584h-197.632c-6.528 0-16.128 2.048-25.024 11.584-6.912 7.36-10.432 17.088-10.432 28.672 0 11.84 3.456 21.76 10.112 29.44 9.024 10.112 18.688 12.224 25.344 12.224h29.504v216.576h-29.504c-6.528 0-16.128 1.984-25.024 11.52-6.912 7.424-10.368 17.088-10.368 28.736 0 11.84 3.456 21.696 10.112 29.312 9.024 10.176 18.688 12.288 25.344 12.288h155.456c6.976 0 12.736-5.632 12.736-12.672v-285.824h29.44c6.592 0 16.32-2.112 25.28-12.224 6.72-7.68 10.112-17.6 10.112-29.44-0.064-11.648-3.52-21.248-10.432-28.608z" />
<glyph unicode="&#x74;" d="M795.318 35.868c-39.078-18.754-74.558-31.93-106.41-39.488-31.908-7.558-66.214-11.354-103.272-11.354-42.076 0-79.178 5.424-111.548 16.148-32.324 10.802-59.832 26.152-82.722 45.994-22.846 19.95-38.388 41.13-47.192 63.568-8.826 22.43-12.91 54.934-12.91 97.528v327.874h-102.58v130.826c34.194 11.902 67.288 28.912 93.068 51.15 25.796 22.156 46.554 48.986 62.16 80.132 15.608 31.098 26.396 70.054 32.292 118.902h129.99v-234.47h219.816v-146.544h-219.816v-240.004c0-54.018 3.302-88.698 8.992-104.058 5.624-15.316 16.4-27.582 31.732-36.736 20.44-12.364 43.398-18.538 69.604-18.538 46.634 0 94.832 15.354 138.796 46.014v-146.944z" />
<glyph unicode="&#xa4;" d="M426.514 265.834c-41.858 0-75.672-33.892-75.672-75.668 0-41.858 33.812-75.676 75.672-75.676 41.778 0 75.668 33.814 75.668 75.676 0.004 41.776-33.892 75.668-75.668 75.668zM788.828 265.834c-41.786 0-75.676-33.892-75.676-75.668 0-41.858 33.892-75.676 75.676-75.676 41.776 0 75.668 33.814 75.668 75.676 0 41.776-33.892 75.668-75.668 75.668zM957.248 697.016h-655.43l-34.386 89.588h-188.31c-22.236 0-41.058-19.628-41.058-41.824v-15.128c0-22.196 18.824-39.274 41.058-39.274l90.806 0.002c8.904 0 20.256 0 31.922 0-2.834-6.636-2.68-11.142 1.42-18.084l139.912-355.488c7.962-13.33 27.196-24.612 42.722-24.612h455.634c15.606 0 33.658 11.602 40.278 25.67l91.67 353.006c6.622 14.070-0.708 26.144-16.238 26.144z" />
<glyph unicode="&#xb7;" d="M278.272 354.368c-40.32 51.904-167.616 235.52-8.96 356.416 185.6 141.312 422.336 179.776 607.936 179.776 51.84-5.76 51.84-32.64 51.84-81.856 0-48.64-62.144-435.136-175.296-570.816-71.68-75.456-167.68-161.216-388.352 35.904-24.896 17.856-55.808 49.216-87.168 80.576z" />
<glyph unicode="&#x1c1;" d="M278.76-27.754h-85.084c-57.012 0-105.634 44.372-105.634 101.4v734.606c0 57.040 48.62 104.884 105.634 104.884h85.084c57.14 0 104.992-47.848 104.992-104.884l0.002-734.608c0-57.020-47.852-101.398-104.994-101.398zM790.916-27.754h-85.094c-57.016 0-107.014 44.372-107.014 101.4v734.606c0 57.040 50.002 104.884 107.014 104.884h85.094c57.148 0 103.602-47.848 103.602-104.884l0.006-734.608c0-57.020-46.456-101.398-103.608-101.398z" />
<glyph unicode="&#x28f;" d="M979.968 778.688c-3.776 14.784-16.128 25.92-31.232 28.096-138.048 19.84-284.992 29.888-436.736 29.888s-298.688-10.048-436.672-29.888c-15.168-2.24-27.52-13.312-31.296-28.096-26.88-105.28-40.512-217.28-40.512-332.864s13.632-227.584 40.512-332.864c3.776-14.72 16.128-25.92 31.296-28.032 137.984-19.968 284.864-30.016 436.672-30.016s298.688 10.048 436.736 29.952c15.104 2.112 27.52 13.312 31.232 28.032 26.944 105.28 40.64 217.28 40.64 332.864s-13.76 227.648-40.64 332.928zM392.64 251.008v389.632l324.736-194.816-324.736-194.816z" />
<glyph unicode="&#x203c;" d="M955.328 675.776c-45.44 57.088-107.456 102.144-185.984 135.296-78.656 33.152-164.096 49.664-256.512 49.664-92.352 0-177.856-16.576-256.448-49.664-78.656-33.088-140.672-78.208-186.176-135.296-45.44-57.088-68.224-119.232-68.224-186.496 0-57.536 17.216-111.744 51.52-162.56 34.304-50.752 81.472-93.568 141.44-128.448-4.8-11.584-9.792-22.272-14.848-31.872-5.056-9.664-11.136-19.008-18.112-27.968-7.040-8.96-12.416-16-16.32-21.056s-10.112-12.16-18.88-21.44c-8.704-9.152-14.208-15.168-16.64-18.048 0 0.448-0.96-0.64-2.88-3.328-1.92-2.624-3.008-3.904-3.264-3.648-0.192 0.256-1.216-0.96-2.88-3.648s-2.496-3.968-2.496-3.968l-1.856-3.648c-0.704-1.472-1.216-2.944-1.408-4.352s-0.512-2.88-0.512-4.544 0.256-3.264 0.768-4.672c0.96-6.336 3.776-11.2 8.32-15.040 4.608-3.904 9.536-5.632 14.848-5.632h2.176c24.192 3.584 44.992 7.104 62.4 11.456 74.496 19.392 141.696 50.24 201.728 92.736 43.52-7.744 86.080-11.712 127.68-11.712 92.416 0 177.92 16.64 256.512 49.728 78.592 33.152 140.544 78.208 185.984 135.232 45.568 57.152 68.224 119.232 68.224 186.496 0.064 67.264-22.592 129.408-68.16 186.432zM456 678.272c0 24.064 20.48 44.864 44.544 44.864h20.608c24.064 0 43.52-20.8 43.52-44.864v-237.248c0-24.064-19.456-44.032-43.52-44.032h-20.544c-24.064 0-44.544 19.904-44.544 44.032v237.248zM568.192 284.736c0-26.24-21.632-48.96-47.936-48.96h-18.816c-26.24 0-48.96 22.656-48.96 48.96v18.88c0 26.176 22.72 47.872 48.96 47.872h18.88c26.24 0 47.936-21.696 47.936-47.872v-18.88z" />
<glyph unicode="&#x21a3;" d="M1040.774 474.31l-256.42 186.322c-8.576 6.068-20.238 6.804-29.45 2.138-9.318-4.752-15.622-14.278-15.622-24.724v-105.16h-114.65c-82.634 0-147.12 39.174-206.622 97.768-82.246 76.88-181.518 134-314.188 134h-131.484v-176.988h131.484c82.632 0 147.112-38.44 206.616-97.044 17.69-16.534 36.172-31.95 55.606-46.262-19.432-14.308-37.914-29.61-55.606-46.144-59.502-58.6-123.984-97.104-206.616-97.104h-131.484v-172.774h131.484c132.67 0 231.942 55.012 314.196 131.89 59.496 58.6 123.982 95.666 206.616 95.666h114.65v-90.33c0-10.626 6.304-20.148 15.622-24.864 3.96-2.082 8.568-2.98 12.742-2.98 5.898 0 11.778 1.71 16.596 5.332l256.478 186.158c7.288 5.198 11.49 13.626 11.49 22.512 0.002 8.928-4.146 17.392-11.438 22.588z" />
<glyph unicode="&#x21a5;" d="M828.604 49.078c0 41.392-31.964 75.182-73.48 75.182l-488.57 0.006c-41.51 0-75.004-33.796-75.004-75.182v-31.040c0-41.374 33.492-73.704 75.004-73.704h488.574c41.512 0 73.48 32.328 73.48 73.704l-0.004 31.034zM820.8 596.116c7.522-9.938 12.184-22.734 11.998-36.352-0.012-34.12-27.484-61.56-61.618-61.58l-98.192-0.18v-218.24c0-36.158-29.196-63.102-65.346-63.102h-196.296c-36.168 0-65.436 28.35-65.426 64.532l0.206 217.524h-98.348c-34.15 0-61.576 27.18-61.576 61.316-0.204 13.618 4.462 26.282 11.986 36.23l256.652 332.176c30.268 30.258 79.044 30.228 109.296-0.028l256.664-332.296z" />
<glyph unicode="&#x21a7;" d="M831.216 33.796c0-41.302-31.894-74.254-73.32-74.254h-487.514c-41.418 0-74.84 32.954-74.84 74.254v30.974c0 41.298 33.42 74.314 74.84 74.314h487.516c41.42 0 73.32-33.018 73.32-74.314l-0.002-30.974zM823.426 551.396c7.508 9.914 12.16 22.684 11.972 36.274-0.010 34.046-27.424 61.434-61.482 61.448l-97.978 0.184-0.002 217.768c0 36.080-29.17 65.28-65.244 65.286l-195.85-0.004c-36.094 0.026-65.288-29.44-65.272-65.544l0.218-218.214h-98.136c-34.078 0-61.442-27.12-61.442-61.184-0.202-13.59 4.454-26.22 11.96-36.15l256.098-331.468c30.202-30.204 78.864-30.168 109.060 0.034l256.098 331.57z" />
<glyph unicode="&#x21a8;" d="M298.566 372.586c-42.308 0-58.87-28.582-36.824-64.668l209.106-341.964c22.050-36.078 58.138-35.842 80.19 0.24l209.11 341.608c22.052 36.082 5.496 64.784-36.83 64.784h-424.752zM298.566 517.276c-42.308 0-58.87 29.696-36.824 65.792l209.106 342.53c22.050 36.080 58.138 36.122 80.19 0.038l209.11-342.586c22.052-36.094 5.496-65.772-36.83-65.772h-424.752z" />
<glyph unicode="&#x21a9;" d="M459.364 642.604v131.066c0 46.020-28.622 60.426-64.946 32.164l-348.558-271.446c-36.328-28.258-36.116-74.062 0.212-102.312l348.222-271.354c36.33-28.246 65.066-13.842 65.066 32.178v130.714c45.832 12.45 97.226 16.738 148.556 14.382 52.774-2.658 105.988-12.586 156.052-32.542 49.922-19.778 96.984-50.708 137.046-92.922 22.2-23.704 41.904-50.998 58.778-80.864 22.648-40.062 38.218-38.13 34.228 7.722-3.26 37.452-10.622 75.404-23.35 112.94-22.398 65.522-60.992 129.062-111.886 182.362-50.736 53.69-112.060 97.328-178.088 132.036-66.636 34.4-135.83 63.386-217.384 75.886l-3.948-0.008z" />
<glyph unicode="&#x21b8;" d="M768 113.6h-665.536v466.368h132.864c0 0 35.264 46.464 110.976 103.616h-295.104c-28.288 0-51.2-23.232-51.2-51.84v-569.92c0-28.608 22.848-51.904 51.2-51.904h768c28.288 0 51.264 23.232 51.264 51.904v194.176l-102.464-85.248v-57.152zM677.184 497.6v-182.336l346.816 267.072-346.816 256.704v-160.832c-421.184 0-421.184-409.088-421.184-409.088 119.168 192.384 192.576 228.48 421.184 228.48v0z" />
<glyph unicode="&#x21b9;" d="M1008 489.28l-202.944 202.624c-8.64 11.648-22.976 15.040-37.12 8-12.096-6.080-19.136-16.96-19.136-29.952v-114.368h-473.472v114.368c0 13.376-6.912 24-19.072 29.376-11.392 4.992-22.656 4.608-35.648-5.504l-204.544-204.544c-7.552-7.616-11.2-15.872-10.752-24.576 0.256-5.888 2.56-14.4 10.816-21.12l202.304-201.728c5.76-8.896 14.336-13.632 24.128-13.632 6.592 0 11.392 1.984 14.784 4.224 11.456 5.504 17.984 15.744 17.984 28.48v114.368h473.472v-114.368c0-13.632 7.488-24.512 20.48-29.632 4.16-1.6 8.384-2.496 12.416-2.496 9.216 0 17.536 4.224 21.696 10.24l203.392 203.392c9.408 7.872 11.776 16.384 12.032 22.272 0.384 8.704-3.264 16.96-10.816 24.576zM783.744 268.416v124.416c0 9.6-7.808 17.472-17.472 17.472h-236.736v110.272h236.672c9.664 0 17.472 7.872 17.472 17.472l-1.024 127.104 198.656-198.848-197.568-197.888z" />
<glyph unicode="&#x21ba;" d="M998.236 432.102c-0.268 5.618-1.010 11.096-1.222 16.56-0.56 7.496-1.646 14.994-2.478 22.474-0.976 7.882-2.314 15.598-3.498 23.33-0.89 5.662-1.77 11.2-2.898 16.754-5.894 29.056-14.658 57.424-25.802 84.758-0.502 1.628-1.408 3.106-1.822 4.682-5.69 13.51-12.090 27.008-19.032 40.016-0.26 0.62-0.682 1.318-0.946 1.968-7.794 14.152-15.678 28.166-25.128 41.618-8.864 13.316-18.58 26.076-29.128 38.592l-0.536 0.696c-0.86 1.218-1.956 2.254-2.844 3.362l-6.252 6.756c-4.802 5.718-9.628 11.348-14.904 16.86-1.244 1.214-2.634 2.492-4.024 3.746-0.832 0.86-1.4 1.352-2.074 2.106-3.35 3.258-6.814 6.382-9.988 9.614l-3.766 3.254c-5.596 5.104-11.082 9.844-16.65 14.6-5.242 4.364-10.458 8.738-15.884 12.872-0.53 0.514-0.946 0.832-1.568 1.346-9.452 7.066-18.194 13.628-27.468 19.868l-1.96 1.21c-0.674 0.49-1.39 0.762-1.926 1.186l-4.378 2.67c-11.174 7.034-22.254 13.584-33.988 19.734l-0.622 0.238c-0.416 0.312-1.096 0.518-1.598 0.856l-1.456 0.564c-11.79 6.184-24.114 11.692-36.618 16.848-3.054 1.262-6.106 2.368-9.162 3.612-11.020 4.264-22.038 8.074-33.332 11.508-2.72 0.876-5.358 1.732-7.996 2.508-13.566 3.834-27.17 7.344-40.974 10.114l-1.036 0.102c-0.42 0.108-0.774 0.108-1.184 0.134l-1.72 0.384c-13.604 2.508-27.198 4.582-41.004 5.826l-0.536 0.146c-2.84 0.266-5.778 0.312-8.682 0.624l-8.472 0.484c-7.46 0.62-14.818 1.248-22.192 1.378l-4-0.236c-7.852 0.076-15.556-0.39-23.382-0.624-5.484-0.252-11.168-0.456-16.654-0.8-7.968-0.562-15.73-1.314-23.644-2.216-5.538-0.726-10.872-1.528-16.236-2.36-15.942-2.532-31.472-5.892-47.142-9.774-2.786-0.83-5.9-1.318-8.744-2.22-8.738-2.432-17.272-5.31-25.952-8.222-3.734-1.244-7.41-2.566-10.872-3.836-28.142-10.492-55.756-23.748-82.278-39.706l-37.99 56.828c-16.238 24.27-39.536 22.436-51.782-4.056l-116.256-251.3c-12.242-26.494 1.598-47.19 30.754-46.008l276.664 11.386c29.166 1.19 39.764 22.022 23.526 46.3l-41.954 62.754c58.964 34.11 125.692 49.228 194.454 43.61l6.312-0.386c9.978-1.040 19.758-2.43 29.568-4.266 32.922-6.312 63.236-16.844 91.68-31.556 9.42-4.922 17.746-9.702 25.654-14.77l4.448-2.814c6.848-4.432 13.304-9.422 19.822-14.254l7.914-6.090c5.332-4.31 10.452-9.128 15.522-13.94 3.618-3.306 6.52-5.972 9.452-8.742 5.128-5.17 9.84-10.472 14.692-15.822l7.35-8.388c5.958-7.080 11.234-14.488 16.65-21.98l2.758-3.91c38.428-57.13 58.132-123.706 56.888-192.744 0-2.014 0.42-3.952 0.536-5.794-3.32-104.498-54.7-206.144-147.852-268.904-153.958-104.132-363.97-63.424-468.12 90.61-40.918 60.814-60.77 131.588-57.306 204.692 1.896 41.026-29.662 75.69-70.58 77.702-40.918 2.014-75.882-29.616-77.746-70.562-4.918-105.376 23.584-207.338 82.664-294.89 150.014-221.892 453.282-280.502 674.94-130.522 136.372 91.974 210.056 241.678 214.27 394.934v0.564c0 8.742-1.074 17.614-1.28 26.354z" />
<glyph unicode="&#x21bb;" d="M2.496 466.816c1.344 27.2 5.568 54.848 10.816 81.536 5.312 27.2 13.248 53.888 23.168 79.808 19.328 50.688 46.4 98.432 80.96 140.288 57.984 70.144 133.184 124.416 218.688 155.968 45.76 16.832 93.632 27.52 142.336 30.336 9.6 0.512 19.264 1.92 28.928 1.344 13.184-0.768 26.368-0.64 39.552-1.344 28.032-1.536 55.808-6.208 83.072-12.48 26.56-6.144 52.48-14.528 77.632-24.96 12.736-5.312 25.28-11.136 37.504-17.408 2.88-1.472 30.656-17.088 30.784-16.896 12.416 18.688 24.96 37.312 37.44 56 7.168 10.816 17.152 22.784 31.552 21.312 12.672-1.28 20.736-12.544 25.664-23.232 5.824-12.544 11.584-25.088 17.344-37.568 23.104-49.92 46.272-99.904 69.312-149.824 9.216-19.776 18.304-39.616 27.52-59.392 6.144-13.312 15.104-28.224 11.072-43.328-5.632-20.992-28.224-21.312-46.016-20.608-19.392 0.768-38.72 1.6-58.048 2.368-55.68 2.304-111.296 4.608-166.912 6.848-16.896 0.704-33.728 1.408-50.688 2.112-6.528 0.256-12.992 0.576-19.264 2.688-17.792 6.080-22.080 23.488-14.272 39.488 2.56 5.12 6.016 9.728 9.152 14.464 4.992 7.552 10.048 15.040 15.104 22.592 7.872 11.84 15.808 23.68 23.68 35.52-87.616 50.688-195.264 60.672-291.072 27.904-81.664-28.032-151.744-87.040-193.6-162.56-46.72-84.352-56.896-187.52-27.776-279.424 27.2-85.568 86.848-158.272 165.312-201.856 69.888-38.784 152.064-52.544 230.784-39.168 78.464 13.312 151.36 53.184 204.48 112.512 31.424 35.008 55.744 76.352 71.104 120.832 8.192 23.68 13.888 48.32 16.832 73.216 1.472 12.544 2.304 25.216 2.496 37.824 0.128 11.584-1.344 23.296 0.128 34.816 4.992 40.32 41.6 70.592 82.176 68.16 19.584-1.216 38.272-9.92 51.776-24.128 14.4-15.040 20.736-34.048 21.568-54.592 3.84-101.312-22.72-202.304-76.16-288.384-43.52-70.080-103.936-129.152-175.168-170.816-67.712-39.616-144.448-63.296-222.656-68.992-79.040-5.76-159.232 6.976-232.512 37.376-81.088 33.664-153.216 88.576-207.104 157.952-54.272 69.888-89.6 153.728-102.784 241.216-2.24 14.72-3.84 29.632-4.8 44.544-0.512 6.656-0.96 13.504-0.96 20.288 0 9.216 1.664 18.368 1.856 27.648 0.256 5.888-0.192-9.152 0 0z" />
<glyph unicode="&#x21c4;" d="M583.008 233.61c0-42.31 30.336-58.872 66.426-36.828l342.888 209.128c36.078 22.056 36.276 58.144 0.196 80.192l-343.184 209.14c-36.086 22.056-66.328 5.494-66.328-36.83l0.002-424.802zM443.126 233.61c0-42.31-30.358-58.872-66.454-36.828l-342.902 209.13c-36.080 22.056-36.288 58.144-0.202 80.192l343.204 209.14c36.090 22.056 66.354 5.494 66.354-36.83v-424.804z" />
<glyph unicode="&#x21c5;" d="M18.176 5.184c0-39.488 32-71.488 71.552-71.488h833.92c39.488 0 71.488 32 71.488 71.488v880.32c0 39.552-32 71.616-71.488 71.616h-833.92c-39.552 0-71.552-32-71.552-71.616v-880.32zM526.016 617.152c-14.336 0-27.072 8.448-32.768 21.824-5.504 13.376-2.176 28.544 8.064 38.784l161.024 161.088c14.144 13.952 35.712 14.144 49.792 0.256l161.024-161.152c10.24-10.304 13.44-25.408 8.064-38.72-5.632-13.376-18.56-22.016-32.96-22.016h-80.32v-535.872c0-9.344-3.392-19.008-10.24-25.536-6.592-6.72-15.68-10.944-25.344-10.944h-89.92c-19.712 0-33.792 17.216-33.792 36.928v535.36h-82.624zM128.64 256c5.504 13.504 18.496 22.144 32.896 22.144h80.128v535.488c0 9.472 3.84 18.624 10.624 25.216 6.656 6.784 15.808 10.496 25.472 10.496h90.432c19.84 0 36.352-16 36.352-35.712v-536.32h78.912c14.528 0 27.2-8.128 32.704-21.568 5.504-13.312 2.304-27.968-7.808-38.208l-161.28-161.216c-14.080-14.144-35.52-14.464-49.472-0.256l-161.216 161.344c-10.112 10.112-13.504 25.216-7.744 38.592z" />
<glyph unicode="&#x21d4;" d="M1018.304 467.328l-213.632 213.632c-4.608 4.608-11.52 5.952-17.472 3.456s-9.792-8.256-9.792-14.72v-138.88h-530.56v138.88c0 6.464-3.904 12.288-9.856 14.72-6.016 2.496-12.864 1.152-17.408-3.456l-213.696-213.632c-6.272-6.208-6.272-16.384 0-22.592l213.632-213.696c3.072-3.072 7.104-4.672 11.328-4.672 2.048 0 4.096 0.448 6.144 1.28 5.952 2.432 9.856 8.32 9.856 14.72v138.176h530.56v-138.176c0-6.464 3.904-12.288 9.792-14.72 6.016-2.496 12.864-1.152 17.472 3.456l213.632 213.696c6.272 6.144 6.272 16.32 0 22.528z" />
<glyph unicode="&#x21d5;" d="M518.080-58.752l213.632 213.632c4.544 4.608 5.952 11.52 3.456 17.472-2.432 6.016-8.256 9.856-14.72 9.856h-138.88v530.56h138.88c6.528 0 12.288 3.904 14.72 9.856 2.496 6.016 1.152 12.864-3.456 17.408l-213.632 213.696c-6.208 6.272-16.384 6.272-22.592 0l-213.696-213.696c-3.008-3.072-4.608-7.104-4.608-11.264 0-2.048 0.384-4.096 1.28-6.144 2.368-5.952 8.256-9.856 14.72-9.856h138.176v-530.56h-138.176c-6.528 0-12.352-3.904-14.72-9.856-2.496-6.016-1.152-12.864 3.392-17.472l213.696-213.632c6.144-6.272 16.32-6.272 22.528 0z" />
<glyph unicode="&#x21d7;" d="M311.232 226.816c-20.288 14.848-39.488 30.656-57.344 47.296h-168.128v425.024h600.192v-45.248c12.096-4.224 24-10.816 35.648-19.904l7.104-5.504c0.384-0.32 0.896-0.64 1.28-1.024l45.504-35.264v199.616c0 47.232-42.24 82.56-89.472 82.56h-601.28c-47.232 0-84.736-35.328-84.736-82.56v-518.592c0-47.232 37.952-88.576 85.248-88.576h290.752c-22.272 12.864-43.584 26.688-63.68 41.344-0.32 0.256-0.704 0.576-1.088 0.832zM997.248 344.128l-312.256 242.816c-11.264 8.768-21.632 12.928-30.656 12.928-16.896 0-28.032-14.784-28.032-41.664v-117.056c-33.536-9.216-69.952-13.44-108.16-13.44-8 0-16.192 0.256-24.192 0.64-47.232 2.304-94.4 11.2-139.264 28.992-44.672 17.728-86.592 45.376-122.432 83.2-19.84 21.248-37.376 45.632-52.48 72.32-9.536 17.024-17.728 25.472-23.232 25.472-2.752 0-4.864-1.984-6.208-6.080-1.728-5.376-2.24-14.016-1.152-26.176 2.944-33.536 9.536-67.52 20.928-101.12 20.032-58.688 54.592-115.52 100.096-163.2 23.488-24.832 49.536-47.36 77.312-67.648v0c25.984-18.944 53.504-35.968 82.048-50.944 59.648-30.784 121.536-53.44 194.56-68.352h2.24v-116.352c0-26.944 11.136-41.664 28.032-41.664 9.024 0 19.392 4.16 30.656 12.928l312.256 242.88c16.256 12.608 24.384 29.248 24.384 45.824-0.064 16.448-8.192 33.088-24.448 45.696z" />
<glyph unicode="&#x221e;" d="M210.944 688.192c0 25.472-27.456 26.496-27.456 0 0-62.784-16.64-226.048-16.64-251.52s-62.784-98.56-62.784-125.056c0-26.496 0-180.416 0-235.328 0-76.48 102.016-141.184 162.752-141.184 19.904 0 19.904 0 25.472 0 0 0 0 337.344 0 376.576s-62.784 97.6-62.784 125.056c0.064 27.392-18.56 188.736-18.56 251.456zM857.152 437.184c0 35.328-17.664 205.952-17.664 250.048 0 28.416-26.496 28.416-26.496 0.96 0-39.232-18.624-227.52-18.624-251.008 0-23.552-62.784-83.328-62.784-125.504s0-376.576 0-376.576 0.64 0 25.472 0c73.536 0 162.752 65.728 162.752 141.184 0 68.672 0 188.288 0 235.328 0.128 47.104-62.656 90.24-62.656 125.568zM526.72 939.264c0 26.496-30.4 26.496-30.4 0 0-32.384-15.68-219.648-15.68-251.008s-125.568-212.864-125.568-251.072 0-502.080 0-502.080h313.792c0 0 0 461.888 0 509.888s-125.504 214.784-125.504 243.2c0 28.48-16.64 219.648-16.64 251.072z" />
<glyph unicode="&#x228e;" d="M998.336 311.488h-114.176v114.176c0 12.032-9.792 21.888-21.76 21.888h-65.344c-11.968 0-21.76-9.792-21.76-21.888v-114.176h-114.176c-12.032 0-21.76-9.792-21.76-21.76v-65.28c0-11.968 9.728-21.76 21.76-21.76h114.176v-114.176c0-12.032 9.792-21.76 21.76-21.76h65.344c11.968 0 21.76 9.664 21.76 21.76l-4.544 109.696 118.72 4.48c12.032 0 21.76 9.792 21.76 21.76v65.28c-0.064 11.968-9.792 21.76-21.76 21.76zM2.048 628.288v215.296c0 13.696 5.248 25.024 14.848 34.56 9.536 9.6 21.632 14.016 35.328 14.016h164.416c13.632 0 26.112-4.416 35.648-14.016 9.6-9.6 15.232-20.928 15.232-34.56v-215.296c0-13.76-5.568-25.088-15.168-34.688s-22.016-14.080-35.648-14.080h-51.072v-98.176h439.936v98.176h-48.384c-13.76 0-25.6 4.48-35.2 14.016-9.536 9.6-14.592 20.928-14.592 34.688v215.36c0 13.696 5.056 25.024 14.592 34.56 9.536 9.6 21.44 14.016 35.2 14.016h164.288c13.76 0 24.576-4.416 34.112-14.016 9.536-9.536 13.568-20.864 13.568-34.56v-215.296c0-13.76-3.968-25.088-13.568-34.688-9.536-9.536-20.352-14.016-34.112-14.016h-50.496v-99.328c0-17.792-5.952-32.448-18.88-45.504-13.056-13.056-27.84-18.752-45.632-18.752h-186.304v-101.952h48.96c13.632 0 25.28-3.84 34.816-13.376 9.6-9.664 14.4-20.352 14.4-34.176v-215.232c0-13.632-4.8-25.536-14.4-35.136-9.536-9.536-21.184-14.592-34.816-14.592h-164.416c-13.696 0-24.768 4.992-34.368 14.592-9.536 9.536-13.76 21.504-13.76 35.136v215.232c0 13.824 4.224 24.512 13.76 34.176 9.6 9.536 20.672 13.376 34.368 13.376h50.048v101.952h-187.392c-17.856 0-33.92 5.696-46.912 18.752s-20.224 27.648-20.224 45.504v99.264h-48c-13.696 0-25.792 4.48-35.328 14.016-9.6 9.664-14.848 20.992-14.848 34.752z" />
<glyph unicode="&#x2295;" d="M512.256 958.272c-281.984 0-510.528-228.608-510.528-510.528s228.608-510.528 510.528-510.528c281.856 0 510.528 228.608 510.528 510.528-0.064 281.984-228.672 510.528-510.528 510.528zM828.16 393.344c0-19.968-15.936-37.696-35.904-37.696h-190.4v-188.48c0-19.776-15.68-33.856-35.584-33.856h-108.416c-19.904 0-35.456 14.144-35.456 33.856v188.48h-190.528c-19.968 0-35.712 17.664-35.712 37.696v108.416c0 19.968 15.744 37.312 35.712 37.312h190.528v188.8c0 19.904 15.616 33.536 35.456 33.536h108.48c19.904 0 35.584-13.696 35.584-33.536v-188.8h190.464c19.968 0 35.904-17.344 35.904-37.312v-108.416z" />
<glyph unicode="&#x2297;" d="M873.28 808.768c-199.36 199.424-522.688 199.36-721.984 0-199.36-199.36-199.36-522.624 0-721.984 199.296-199.296 522.688-199.296 721.984 0 199.296 199.424 199.296 522.688 0 721.984zM697.152 185.92c-14.144-14.208-37.888-15.36-51.968-1.344l-134.656 134.656-133.312-133.312c-13.952-13.952-35.008-12.864-49.088 1.216l-76.736 76.736c-14.016 14.080-15.040 35.072-1.152 49.088l133.312 133.312-134.72 134.656c-14.080 14.144-12.736 37.76 1.408 51.904l76.672 76.672c14.080 14.080 37.44 15.232 51.584 1.152l134.72-134.72 133.504 133.504c14.080 14.016 34.752 12.672 48.832-1.344l76.672-76.736c14.080-14.016 15.424-34.816 1.344-48.896l-133.504-133.504 134.656-134.656c14.080-14.144 13.12-37.632-1.024-51.776l-76.544-76.608z" />
<glyph unicode="&#x229a;" d="M756.546 446.394c0-51.482-16.056-99.156-43.488-138.616l160.656-160.618c67.608 81.334 108.048 185.576 108.048 299.226 0 113.644-40.444 217.892-108.048 299.226l-160.656-160.53c27.436-39.468 43.488-87.208 43.488-138.688zM268.566 446.394c0 51.482 16.118 99.218 43.488 138.682l-160.59 160.608c-67.528-81.328-108.19-185.648-108.19-299.29s40.654-217.892 108.194-299.226l160.588 160.618c-27.368 39.456-43.49 87.124-43.49 138.608zM651.108 245.82c-39.314-27.284-86.976-43.424-138.314-43.424-51.686 0-99.424 16.128-138.738 43.424l-160.588-160.61c81.174-67.466 185.406-108.064 299.316-108.064 113.28 0 217.652 40.664 298.966 108.064l-160.642 160.61zM374.066 647.036c39.32 27.3 87.056 43.424 138.738 43.424 51.344 0 98.998-16.118 138.314-43.424l160.654 160.54c-81.32 67.472-185.692 108.064-298.966 108.064-113.92 0-218.142-40.592-299.316-108.064l160.576-160.54z" />
<glyph unicode="&#x229e;" d="M620.032 409.472h-148.096v145.216c0 15.488-12.288 28.416-27.712 28.416h-84.416c-15.488 0-25.856-12.992-25.856-28.416v-145.216h-150.016c-15.488 0-28.096-15.168-28.096-30.656v-84.352c0-15.488 12.608-27.392 28.096-27.392h149.952v-148.48c0-15.424 10.432-29.632 25.856-29.632h84.416c15.424 0 27.712 14.208 27.712 29.632v148.48h148.096c15.488 0 30.016 11.904 30.016 27.392v84.352c0 15.488-14.464 30.656-29.952 30.656zM842.24 760.768l-143.104 143.552c-31.104 31.104-92.864 57.28-136.832 57.28h-480.064c-44.032-0.064-82.24-37.44-82.24-81.408v-864.064c0-44.032 38.208-78.592 82.24-78.592h736c44.032 0 81.152 34.56 81.152 78.592v608c0 44.032-26.048 105.472-57.152 136.64zM641.152 867.584c4.352-3.008 8.768-6.144 11.904-9.28l143.104-143.296c3.136-3.136 6.656-7.296 9.6-11.712h-164.608v164.288zM832.512 624.128v-608c0-8.704-5.504-16.256-14.272-16.256h-736c-8.64 0-15.424 7.552-15.424 16.256v864.064c0 8.64 6.784 14.592 15.424 14.592h480.064c4.8 0 12.032 0.768 16.448-0.32v-253.44h253.888c0.96-4.48-0.128-12.032-0.128-16.896z" />
<glyph unicode="&#x22b9;" d="M512.316 937.952c-268.088 0-485.45-217.362-485.45-485.494 0-268.046 217.366-485.412 485.45-485.412 268.132 0 485.45 217.366 485.45 485.412 0.008 268.132-217.318 485.494-485.45 485.494zM587.536 113.186v154.934c0 18.642-14.016 32.996-32.662 32.996h-85.068c-18.69 0-33.974-14.352-33.974-32.996v-154.934c-130.634 29.33-233.456 133.148-262.78 263.782h154.842c18.696 0 32.088 14.33 32.088 33.008v85.034c0 18.694-13.396 33.662-32.088 33.662h-154.842c29.324 130.634 132.146 233.808 262.78 263.138v-154.926c0-18.656 15.284-32.36 33.974-32.36h85.068c18.646 0 32.662 13.704 32.662 32.36v154.926c130.634-29.33 234.766-132.504 264.096-263.138h-154.934c-18.682 0-33.31-14.97-33.31-33.662v-85.034c0-18.678 14.624-33.008 33.31-33.008h154.98c-29.378-130.634-133.508-234.452-264.142-263.782z" />
<glyph unicode="&#x2300;" d="M855.032 789.022c-189.544 189.55-496.966 189.596-686.552 0-189.55-189.54-189.55-497 0-686.56 189.586-189.534 497.004-189.534 686.552 0 189.588 189.6 189.588 497.024 0 686.56zM281.608 675.894c107.57 107.582 271.52 123.742 396.458 49.268l-445.724-445.726c-74.472 124.976-58.266 288.936 49.266 396.458zM741.894 215.606c-107.572-107.568-271.478-123.734-396.418-49.264l445.726 445.728c74.43-124.982 58.264-288.938-49.308-396.464z" />
<glyph unicode="&#x2326;" d="M950.912 429.952l-469.312 469.184h-403.008v-403.008l469.312-469.248c31.616-31.68 82.944-31.68 114.56 0l288.448 288.448c31.616 31.68 31.616 82.944 0 114.624zM305.28 571.712c-55.68 0-100.736 45.056-100.736 100.736s45.056 100.736 100.736 100.736c55.68 0.128 100.736-45.056 100.736-100.736 0.064-55.68-45.184-100.736-100.736-100.736z" />
<glyph unicode="&#x2327;" d="M742.976 576.832h-135.232l-95.744-141.056-95.744 141.056h-135.296l162.176-242.496-182.976-269.504h262.208v91.648h-60.544l50.176 74.944 111.36-166.656h140.416l-182.912 269.568 162.112 242.496zM903.424 761.408l-142.848 142.848c-31.168 31.104-92.544 56.576-136.576 56.576h-480c-44.032 0-80-36.032-80-80v-864c0-44.032 35.968-80 80-80h736c44.032 0 80 35.968 80 80v608c0 44.032-25.408 105.408-56.576 136.576zM858.176 716.16c3.136-3.136 6.272-6.976 9.28-11.328h-163.456v163.456c4.288-3.008 8.192-6.144 11.328-9.28l142.848-142.848zM896 16.832c0-8.704-7.296-16-16-16h-736c-8.704 0-16 7.296-16 16v864c0 8.64 7.296 16 16 16h480c4.864 0 10.24-0.64 16-1.728v-254.272h254.336c1.024-5.76 1.664-11.2 1.664-16v-608z" />
<glyph unicode="&#x2328;" d="M157.952 874.24c0 47.104 38.208 85.312 85.376 85.312h533.312c47.168 0 85.376-38.208 85.376-85.312v-853.312c0-47.104-38.208-85.312-85.376-85.312h-533.312c-47.168 0-85.312 38.208-85.312 85.312v853.312zM264.64 805.952v-140.8c0-26.048 20.928-46.912 46.912-46.912h396.8c25.984 0 46.912 20.928 46.912 46.912v140.8c0 26.048-20.928 46.912-46.912 46.912h-396.8c-26.048 0-46.912-20.864-46.912-46.912zM317.952 426.24c29.44 0 53.312 23.936 53.312 53.312s-23.808 53.312-53.312 53.312c-29.44 0-53.312-23.936-53.312-53.312s23.872-53.312 53.312-53.312zM510.016 426.24c29.44 0 53.312 23.936 53.312 53.312s-23.872 53.312-53.312 53.312-53.376-23.872-53.376-53.312 23.936-53.312 53.376-53.312zM702.016 426.24c29.44 0 53.312 23.936 53.312 53.312s-23.872 53.312-53.312 53.312-53.376-23.872-53.376-53.312 23.936-53.312 53.376-53.312zM317.952 234.176c29.44 0 53.312 23.936 53.312 53.376s-23.808 53.376-53.312 53.376c-29.44 0-53.312-23.936-53.312-53.376s23.872-53.376 53.312-53.376zM510.016 234.176c29.44 0 53.312 23.936 53.312 53.376s-23.872 53.376-53.312 53.376-53.376-23.936-53.376-53.376 23.936-53.376 53.376-53.376zM702.016 234.176c29.44 0 53.312 23.936 53.312 53.376s-23.872 53.376-53.312 53.376-53.376-23.936-53.376-53.376 23.936-53.376 53.376-53.376zM317.952 42.24c29.44 0 53.312 23.872 53.312 53.312s-23.872 53.312-53.312 53.312c-29.44 0-53.312-23.872-53.312-53.312s23.872-53.312 53.312-53.312zM510.016 42.24c29.44 0 53.312 23.872 53.312 53.312s-23.872 53.312-53.312 53.312-53.376-23.872-53.376-53.312 23.936-53.312 53.376-53.312zM702.016 42.24c29.44 0 53.312 23.872 53.312 53.312s-23.872 53.312-53.312 53.312-53.376-23.872-53.376-53.312 23.936-53.312 53.376-53.312z" />
<glyph unicode="&#x2337;" d="M170.688 20.928h682.688v512h-277.376c-17.792 0-32.96 6.208-45.376 18.688s-18.624 27.52-18.624 45.312v277.312h-341.312v-853.312zM597.312 618.24h199.296l-199.296 199.36v-199.36zM938.624 532.928v-533.312c0-17.792-6.208-32.96-18.624-45.376s-27.584-18.688-45.376-18.688h-725.312c-17.792 0-32.896 6.272-45.312 18.688-12.48 12.416-18.688 27.584-18.688 45.376v895.936c0 17.792 6.208 32.896 18.688 45.312 12.416 12.48 27.52 18.688 45.312 18.688h362.688c17.728 0 37.312-4.416 58.624-13.312 21.376-8.896 38.272-19.584 50.688-32l272-272c12.416-12.416 23.104-29.312 32-50.688s13.312-40.832 13.312-58.624z" />
<glyph unicode="&#x2338;" d="M769.344 255.488v-42.688c0-6.208-1.984-11.328-6.016-15.296s-9.152-6.016-15.232-6.016h-469.44c-6.208 0-11.328 1.984-15.36 6.016-3.968 3.968-5.952 9.152-5.952 15.296v42.688c0 6.272 1.984 11.328 5.952 15.296 4.032 3.968 9.152 6.016 15.36 6.016h469.376c6.144 0 11.264-1.984 15.232-6.016s6.080-9.024 6.080-15.296zM769.344 426.176v-42.688c0-6.272-1.984-11.328-6.016-15.296s-9.152-6.016-15.232-6.016h-469.44c-6.208 0-11.328 1.984-15.36 6.016-3.904 3.968-5.952 9.024-5.952 15.296v42.688c0 6.208 1.984 11.328 5.952 15.296 4.032 3.968 9.152 6.016 15.36 6.016h469.376c6.144 0 11.264-1.984 15.232-6.016s6.080-9.088 6.080-15.296zM172.032 20.8h682.688v512h-277.376c-17.792 0-32.896 6.272-45.312 18.688s-18.688 27.584-18.688 45.312v277.376h-341.312v-853.376zM598.656 618.176h199.36l-199.36 199.296v-199.296zM940.032 532.8v-533.312c0-17.728-6.272-32.896-18.752-45.312-12.352-12.416-27.52-18.688-45.248-18.688h-725.376c-17.792 0-32.896 6.272-45.312 18.688-12.48 12.416-18.688 27.584-18.688 45.312v896c0 17.728 6.208 32.896 18.688 45.312 12.416 12.416 27.52 18.688 45.312 18.688h362.688c17.728 0 37.312-4.416 58.688-13.312 21.312-8.96 38.144-19.584 50.688-32l272-272c12.352-12.416 23.104-29.376 32-50.688s13.312-40.896 13.312-58.688z" />
<glyph unicode="&#x2339;" d="M844.608 371.648c-13.696 13.376-43.968 20.544-89.984 21.12-31.168 0.32-68.672-2.432-108.16-7.936-17.728 10.24-35.904 21.376-50.24 34.688-38.464 35.904-70.528 85.76-90.56 140.608 1.344 5.12 2.432 9.6 3.456 14.208 0 0 21.632 123.072 15.936 164.672-0.768 5.696-1.28 7.36-2.752 11.776l-1.92 4.864c-5.888 13.568-17.472 27.968-35.584 27.2l-10.88 0.32c-20.16 0-36.672-10.304-41.024-25.728-13.12-48.448 0.448-120.896 25.024-214.784l-6.272-15.232c-17.6-42.88-39.68-86.080-59.072-124.16l-2.56-4.992c-20.416-40-38.976-73.984-55.872-102.848l-17.344-9.152c-1.28-0.704-31.040-16.448-38.016-20.672-59.264-35.392-98.56-75.52-105.024-107.392-2.048-10.176-0.512-23.168 9.984-29.248l16.832-8.448c7.296-3.712 14.976-5.504 22.848-5.504 42.24 0 91.2 52.544 158.72 170.368 77.888 25.344 166.656 46.464 244.416 58.048 59.264-33.344 132.096-56.576 178.112-56.576 8.192 0 15.232 0.832 20.928 2.304 8.832 2.304 16.256 7.36 20.8 14.208 8.96 13.44 10.752 31.936 8.32 50.88-0.768 5.696-5.312 12.672-10.112 17.408zM214.272 147.072c7.68 21.056 38.144 62.656 83.2 99.584 2.816 2.304 9.792 8.832 16.192 14.912-47.104-75.136-78.656-105.088-99.392-114.496zM481.024 761.408c13.568 0 21.312-34.176 21.952-66.24s-6.848-54.592-16.192-71.232c-7.68 24.64-11.392 63.488-11.392 88.896 0 0.064-0.576 48.576 5.632 48.576zM401.408 323.584c9.472 16.96 19.328 34.752 29.376 53.696 24.512 46.336 40 82.56 51.456 112.32 22.912-41.664 51.456-77.12 84.992-105.472 4.224-3.584 8.64-7.104 13.248-10.624-68.16-13.504-127.168-29.952-179.072-49.92zM831.488 327.424c-4.096-2.56-16.064-4.032-23.68-4.032-24.768 0-55.296 11.328-98.112 29.696 16.448 1.216 31.552 1.792 45.056 1.792 24.832 0 32.128 0.064 56.384-6.080 24.256-6.208 24.512-18.752 20.352-21.376zM905.984 761.664l-142.784 142.848c-31.104 31.104-92.544 56.576-136.576 56.576h-480c-44.032 0-80-35.968-80-80v-864c0-44.032 35.968-80 80-80h736c43.968 0 79.936 35.968 79.936 80v608c0 44.032-25.408 105.472-56.576 136.576zM860.736 716.416c3.136-3.136 6.272-6.976 9.344-11.328h-163.456v163.52c4.288-3.008 8.128-6.144 11.328-9.28l142.784-142.912zM898.624 17.088c0-8.704-7.36-16-16-16h-736c-8.64 0-16 7.296-16 16v864c0 8.64 7.36 16 16 16h480c4.8 0 10.24-0.64 15.936-1.728v-254.272h254.336c1.152-5.76 1.728-11.136 1.728-16v-608z" />
<glyph unicode="&#x233a;" d="M644.288 485.056h44.224l-51.008-226.112-66.304 317.952h-106.56l-77.12-317.952-57.792 317.952h-111.36l113.088-511.872h108.864l76.288 302.656 68.224-302.656h100.288l129.664 511.872h-170.496v-91.84zM908.032 761.536l-142.848 142.848c-31.104 31.104-92.544 56.576-136.576 56.576h-480c-44.032 0-80-35.968-80-80v-864c0-44.032 35.968-79.936 80-79.936h736c44.032 0 80 35.968 80 79.936v608c-0.064 43.968-25.472 105.472-56.576 136.576zM862.72 716.288c3.136-3.136 6.272-6.976 9.28-11.328h-163.456v163.456c4.288-3.008 8.192-6.144 11.328-9.28l142.848-142.848zM900.544 16.896c0-8.64-7.296-16-16-16h-736c-8.704 0-16 7.36-16 16v864c0 8.64 7.296 16 16 16h480c4.8 0 10.24-0.576 16-1.728v-254.272h254.336c1.088-5.76 1.664-11.136 1.664-16v-608z" />
<glyph unicode="&#x233c;" d="M524.032 957.696c-176.32 0-319.104-142.912-319.104-319.104 0-304.64 319.104-702.016 319.104-702.016s319.040 397.376 319.040 702.016c0 176.192-142.848 319.104-319.040 319.104zM524.032 462.4c-95.168 0-172.352 77.248-172.352 172.352 0 95.168 77.184 172.288 172.352 172.288 95.104 0 172.288-77.184 172.288-172.288 0-95.168-77.184-172.352-172.288-172.352z" />
<glyph unicode="&#x235c;" d="M810.346 619.17c-10.212-9.718-18.31-29.228-18.31-43.316v-254.518c0-14.096 8.106-33.596 18.31-43.318l183.424-174.81c10.212-9.724 18.522-6.168 18.522 7.924v674.928c0 14.092-8.312 17.698-18.522 7.924l-183.424-174.814zM693.702 674.498c0 68.572-55.58 124.17-124.144 124.17l-440.028-0.006c-68.566 0-124.142-55.588-124.142-124.164v-451.776c0-68.582 55.58-124.176 124.144-124.176h440.030c68.562 0 124.144 55.59 124.144 124.168l-0.004 451.784z" />
<glyph unicode="&#x2395;" d="M843.34 832.132h-173.186c-14.642 75.696-79.034 127.488-156.164 127.488-77.126 0-141.524-51.794-156.166-127.494l-173.18 0.006c-46.958 0-86.988-36.042-86.988-83v-722.45c0-46.958 40.030-86.986 86.988-86.986h658.696c46.964 0 83.004 40.028 83.004 86.986v722.45c0 46.958-36.040 83-83.004 83zM822.76 94.686c0-25.922-21.5-47.418-47.412-47.418l-522.706 0.004c-25.912 0-47.416 21.498-47.416 47.414v586.442c0 25.918 21.504 47.418 47.416 47.418h99.994v-38.908c0-25.918 22.826-48.742 48.746-48.742h225.224c25.92-0.002 44.758 22.826 44.758 48.74v38.91h103.984c25.91 0 47.412-21.494 47.412-47.418v-586.442zM460.868 802.252c0 29.316 23.802 53.122 53.122 53.122 29.314 0 53.122-23.802 53.122-53.122s-23.798-53.12-53.122-53.12c-29.316 0-53.122 23.796-53.122 53.12zM715.852 397.868c0-29.32-23.796-51.794-53.114-51.794l-297.484-0.002c-29.316 0-53.114 22.476-53.114 51.794s23.798 51.794 53.114 51.794h297.48c29.322-0.002 53.118-22.476 53.118-51.792zM662.734 258.422h-297.48c-29.316 0-53.114-22.476-53.114-51.794s23.798-51.794 53.114-51.794h297.48c29.32 0 53.114 22.476 53.114 51.794s-23.792 51.794-53.114 51.794z" />
<glyph unicode="&#x2399;" d="M896 703.552h-768c-70.656 0-128-57.344-128-128v-256c0-106.048 85.952-192 192-192v256h640v-256c106.048 0 192 85.952 192 192v256c0 70.656-57.344 128-128 128zM256 319.552h512v-384h-512zM256 959.552h512v-192h-512z" />
<glyph unicode="&#x23e9;" d="M944.028 524.486l-367.412 311.266c-50.142 42.334-90.010 23.316-90.010-42.46v-259.448l-357.916 301.908c-50.234 42.334-91.66 23.316-91.66-42.46v-691.724c0-65.774 41.426-84.8 91.66-42.46l357.918 301.898v-259.44c0-65.774 39.864-84.8 90.010-42.46l368.032 311.252c50.212 42.374 49.604 111.758-0.622 154.128z" />
<glyph unicode="&#x23ea;" d="M82.262 371.536l367.29-311.286c50.222-42.334 89.862-23.31 89.862 42.468v259.456l357.912-301.924c50.242-42.334 91.704-23.31 91.704 42.468l0.004 691.778c0 65.772-41.462 84.794-91.704 42.462l-357.91-301.928v259.47c0 65.772-39.646 84.794-89.862 42.462l-367.982-311.296c-50.246-42.372-49.558-111.766 0.686-154.13z" />
<glyph unicode="&#x2442;" d="M70.912 657.28v247.424c0 15.744 5.504 29.184 16.512 40.128 11.008 11.008 24.384 16.576 40.128 16.576h188.992c15.744 0 29.12-5.504 40.128-16.576 11.008-11.008 16.512-24.384 16.512-40.128v-247.424c0-15.744-5.504-29.184-16.512-40.128-11.008-11.072-24.384-16.576-40.064-16.576h-56.704v-113.344h504.704v113.344h-56.704c-15.744 0-29.12 5.504-40.192 16.512-11.008 11.008-16.512 24.384-16.512 40.128v247.488c0 15.744 5.504 29.184 16.512 40.128 11.072 11.008 24.448 16.576 40.192 16.576h188.928c15.744 0 29.12-5.504 40.128-16.576 11.072-11.008 16.576-24.384 16.576-40.128v-247.424c0-15.744-5.504-29.184-16.576-40.128-11.008-11.008-24.384-16.512-40.128-16.512h-56.704v-113.408c0-20.48-7.488-38.208-22.464-53.184s-32.704-22.464-53.12-22.464h-214.464v-113.344h56.64c15.744 0 29.12-5.504 40.128-16.576 11.008-11.008 16.576-24.384 16.576-40.128v-247.488c0-15.68-5.568-29.12-16.576-40.128s-24.384-16.512-40.128-16.512h-188.992c-15.744 0-29.12 5.504-40.128 16.512s-16.576 24.448-16.576 40.128v247.488c0 15.744 5.568 29.12 16.576 40.128 11.008 11.072 24.384 16.576 40.128 16.576h56.704v113.344h-214.528c-20.48 0-38.208 7.488-53.184 22.464-14.912 14.976-22.4 32.704-22.4 53.184v113.344h-56.704c-15.744 0-29.12 5.504-40.128 16.512-11.072 11.008-16.576 24.448-16.576 40.192z" />
<glyph unicode="&#x2443;" d="M720.128 890.816h247.424c15.744 0 29.12-5.504 40.128-16.512 11.072-11.008 16.576-24.384 16.576-40.128v-188.992c0-15.744-5.504-29.12-16.576-40.128-11.008-11.008-24.384-16.512-40.128-16.512h-247.424c-15.744 0-29.184 5.504-40.192 16.512-11.008 11.072-16.512 24.448-16.512 40.128v56.704h-113.408v-504.768h113.344v56.704c0 15.744 5.504 29.12 16.576 40.192 11.008 11.008 24.448 16.512 40.192 16.512h247.424c15.744 0 29.12-5.504 40.128-16.512 11.072-11.072 16.576-24.448 16.576-40.192v-188.928c0-15.744-5.504-29.12-16.576-40.128-11.008-11.072-24.448-16.576-40.192-16.576h-247.36c-15.744 0-29.184 5.504-40.192 16.576-11.072 11.008-16.576 24.384-16.576 40.128v56.704h-113.344c-20.48 0-38.208 7.488-53.184 22.464s-22.464 32.704-22.464 53.12v214.528h-113.28v-56.704c0-15.744-5.504-29.12-16.576-40.128-11.008-11.008-24.384-16.576-40.128-16.576h-247.488c-15.68 0-29.12 5.568-40.128 16.576s-16.512 24.384-16.512 40.128v188.992c0 15.744 5.504 29.12 16.512 40.128s24.448 16.576 40.128 16.576h247.488c15.744 0 29.12-5.568 40.128-16.576 11.072-11.008 16.576-24.384 16.576-40.128v-56.704h113.344v214.592c0 20.48 7.488 38.208 22.464 53.184 14.976 14.912 32.704 22.464 53.184 22.464h113.408v56.64c0 15.744 5.504 29.12 16.512 40.128s24.384 16.512 40.128 16.512z" />
<glyph unicode="&#x2581;" d="M212.8 223.36h-137.024c-43.072 0-77.76-33.856-77.76-76.992v-129.984c0-43.136 34.688-77.44 77.76-77.44h137.088c43.072 0 77.76 34.304 77.76 77.44v129.984c-0.064 43.136-34.688 76.992-77.824 76.992z" />
<glyph unicode="&#x2582;" d="M578.496 548.48h-137.024c-43.072 0-77.76-33.92-77.76-76.992v-455.040c0-43.2 34.688-77.504 77.76-77.504h137.024c43.136 0 77.824 34.304 77.824 77.504v455.040c0 43.072-34.688 76.992-77.824 76.992zM212.8 223.36h-137.024c-43.072 0-77.76-33.856-77.76-76.992v-129.92c0-43.2 34.688-77.504 77.76-77.504h137.088c43.072 0 77.76 34.304 77.76 77.504v129.92c-0.064 43.136-34.688 76.992-77.824 76.992z" />
<glyph unicode="&#x2583;" d="M578.496 548.48h-137.024c-43.072 0-77.76-33.92-77.76-76.992v-455.104c0-43.136 34.688-77.44 77.76-77.44h137.024c43.136 0 77.824 34.304 77.824 77.44v455.104c0 43.072-34.688 76.992-77.824 76.992z" />
<glyph unicode="&#x2585;" d="M944.256 873.536h-137.152c-43.136 0-77.76-33.92-77.76-77.056v-780.16c0-43.136 34.624-77.44 77.76-77.44h137.152c43.136 0 77.76 34.304 77.76 77.44v780.224c0 43.072-34.624 76.992-77.76 76.992zM578.496 548.48h-137.024c-43.072 0-77.76-33.92-77.76-76.992v-455.040c0-43.2 34.688-77.504 77.76-77.504h137.024c43.136 0 77.824 34.304 77.824 77.504v455.040c0 43.072-34.688 76.992-77.824 76.992z" />
<glyph unicode="&#x2586;" d="M944.256 873.536h-137.088c-43.136 0-77.76-33.92-77.76-77.056v-780.16c0-43.136 34.624-77.44 77.76-77.44h137.088c43.136 0 77.76 34.304 77.76 77.44v780.224c0 43.072-34.624 76.992-77.76 76.992z" />
<glyph unicode="&#x2587;" d="M944.256 873.536h-137.152c-43.136 0-77.76-33.92-77.76-77.056v-780.16c0-43.136 34.624-77.44 77.76-77.44h137.152c43.136 0 77.76 34.304 77.76 77.44v780.224c0 43.072-34.624 76.992-77.76 76.992zM578.496 548.48h-137.024c-43.072 0-77.76-33.92-77.76-76.992v-455.040c0-43.2 34.688-77.504 77.76-77.504h137.024c43.136 0 77.824 34.304 77.824 77.504v455.040c0 43.072-34.688 76.992-77.824 76.992zM212.8 223.36h-137.024c-43.072 0-77.76-33.856-77.76-76.992v-129.92c0-43.2 34.688-77.504 77.76-77.504h137.088c43.072 0 77.76 34.304 77.76 77.504v129.92c-0.064 43.136-34.688 76.992-77.824 76.992z" />
<glyph unicode="&#x25a0;" d="M942.098 154.964c0-77.896-62.312-143.732-140.2-143.732l-581.904 0.006c-77.89 0-140.2 65.84-140.2 143.732l-0.002 581.91c0 77.896 62.312 142.776 140.2 142.776l581.908-0.002c77.886 0 140.2-64.888 140.2-142.776l-0.002-581.914z" />
<glyph unicode="&#x25a3;" d="M511.242 540.45c-78.776 0-142.618-63.862-142.618-142.618 0-78.77 63.84-142.61 142.618-142.61 78.758 0 142.624 63.842 142.624 142.61 0 78.758-63.864 142.618-142.624 142.618zM891.562 682.336h-114.096c-15.694 0-32.592 12.554-37.548 27.444l-29.496 89.436c-4.976 14.88-21.858 27.968-37.548 27.968l-323.268-0.002c-15.692 0-32.584-12.906-37.546-27.784l-29.484-89.244c-4.978-14.894-21.86-27.818-37.546-27.818h-114.096c-52.298 0-94.324-42.054-94.324-94.346v-427.846c0-52.294 42.028-94.326 94.32-94.326h760.632c52.284-0.004 95.828 42.030 95.828 94.324v427.848c0 52.292-43.544 94.346-95.828 94.346zM511.242 160.142c-131.274 0-237.696 106.438-237.696 237.692 0 131.274 106.422 237.696 237.696 237.696 131.256 0 237.696-106.424 237.696-237.696 0.004-131.254-106.442-237.692-237.696-237.692z" />
<glyph unicode="&#x25a5;" d="M744.512 603.136v-535.104c0-8.384-4.16-16.256-12.48-23.36-8.384-7.104-16.832-10.88-25.216-10.88-10.752 0-20.928 3.136-30.528 9.024-9.536 6.016-14.4 14.4-14.4 25.28v497.344c0 7.168-3.648 12.544-10.816 16.128-7.104 3.584-135.232 72.448-384.32 206.528-17.92 6.016-39.488 2.944-64.576-8.96-28.736-15.552-46.656-29.888-53.888-43.072l389.696-217.344c10.752-5.952 16.192-14.976 16.192-26.88v-522.56c0-12.032-5.952-20.992-17.92-27.136-4.8-2.24-10.176-3.52-16.192-3.52-5.952 0-12.032 1.856-17.92 5.376-198.784 124.672-329.856 206.080-393.344 244.288-15.488 10.752-23.936 21.632-25.152 32.256l-5.312 497.536c0 19.136 4.736 35.968 14.336 50.304 17.984 28.736 49.984 52.992 96.064 72.704 46.080 19.776 82.88 22.464 110.464 8.128l429.184-219.072c10.816-6.080 16.128-15.040 16.128-27.008zM329.088 828.352c9.344 8 45.568 40.192 61.696 48.96 25.152 11.968 46.656 14.976 64.704 9.024 248.96-134.144 377.088-202.944 384.256-206.528 7.104-3.584 10.752-8.96 10.752-16.128v-497.536c0-10.624 4.8-19.008 14.464-25.024 9.472-6.144 19.712-9.024 30.464-9.024 8.384 0 16.832 3.52 25.216 10.624 8.384 7.232 12.544 14.976 12.544 23.36v535.168c0 11.968-5.376 20.928-16.128 26.944l-429.312 219.136c-27.52 14.336-64.32 11.648-110.464-8.064-46.016-19.776-92.16-52.224-110.080-80.96z" />
<glyph unicode="&#x25b2;" d="M307.996 237.662c-40.436 0-56.262 28.494-35.196 62.984l199.85 327.412c21.072 34.486 55.562 34.552 76.632 0.060l199.852-327.508c21.072-34.496 5.248-62.95-35.2-62.95l-405.938 0.002z" />
<glyph unicode="&#x25b3;" d="M815.202 366.652c-22.546 23.122-259.856 249.15-259.856 249.15-12.066 12.32-27.824 18.502-43.622 18.502-15.78 0-31.564-6.186-43.582-18.502 0 0-237.316-226.030-259.88-249.15-22.566-23.118-24.082-64.732 0-89.418 24.056-24.664 57.666-26.63 87.204 0.026l216.252 207.35 216.278-207.35c29.548-26.65 63.144-24.686 87.206-0.026 24.108 24.688 22.544 66.292 0 89.418z" />
<glyph unicode="&#x25b6;" d="M185.866 130.49c0-62.95 44.050-87.6 97.744-54.798l509.588 311.144c53.688 32.81 53.71 86.502 0.026 119.31l-509.622 311.152c-53.698 32.802-97.738 8.162-97.738-54.806l0.002-632.002z" />
<glyph unicode="&#x25b7;" d="M432.010 143.064c23.122 22.556 249.15 259.858 249.15 259.858 12.32 12.068 18.502 27.824 18.502 43.622 0 15.778-6.178 31.564-18.502 43.58 0 0-226.028 237.312-249.15 259.874-23.118 22.572-64.726 24.080-89.41 0-24.664-24.056-26.63-57.666 0.020-87.204l207.348-216.252-207.348-216.27c-26.65-29.552-24.684-63.142-0.020-87.21 24.678-24.096 66.288-22.542 89.41 0.002z" />
<glyph unicode="&#x25ba;" d="M309.684 629.472c0 37.172 25.94 51.718 57.636 32.354l300.822-183.694c31.69-19.368 31.69-51.070 0-70.438l-300.822-183.696c-31.696-19.372-57.636-4.826-57.636 32.35v373.124z" />
<glyph unicode="&#x25bc;" d="M324.404 635.848c-37.168 0-51.714-24.892-32.35-56.59l183.694-300.3c19.37-31.688 51.070-31.428 70.438 0.264l183.696 299.9c19.368 31.7 4.824 56.728-32.354 56.728l-373.124-0.002z" />
<glyph unicode="&#x25bd;" d="M215.946 522.99c21.976-22.538 253.284-242.854 253.284-242.854 11.758-12.008 27.12-18.034 42.518-18.034 15.388 0 30.766 6.024 42.478 18.034 0 0 231.312 220.318 253.312 242.854 21.996 22.532 23.47 63.086 0 87.148-23.448 24.040-56.216 25.958-85.004-0.024l-210.788-202.106-210.808 202.106c-28.8 25.986-61.546 24.060-85 0.024-23.488-24.060-21.966-64.616 0.008-87.148z" />
<glyph unicode="&#x25c1;" d="M591.946 749.408c-23.128-22.548-249.148-259.858-249.148-259.858-12.326-12.064-18.504-27.826-18.504-43.622 0-15.778 6.178-31.562 18.504-43.58 0 0 226.018-237.31 249.148-259.872 23.118-22.568 64.728-24.080 89.408 0 24.664 24.056 26.63 57.674-0.020 87.206l-207.34 216.248 207.342 216.28c26.652 29.546 24.684 63.142 0.020 87.204-24.678 24.090-66.286 22.53-89.41-0.006z" />
<glyph unicode="&#x25c4;" d="M699.834 256.342c0-37.172-25.94-51.718-57.636-32.354l-300.822 183.694c-31.69 19.368-31.69 51.070 0 70.438l300.822 183.696c31.696 19.372 57.636 4.826 57.636-32.35v-373.124z" />
<glyph unicode="&#x25c9;" d="M511.936 561.344c-62.784 0-113.664-51.2-113.664-113.856s50.88-113.664 113.664-113.664c63.040 0 113.792 51.136 113.792 113.664 0 62.72-50.752 113.856-113.792 113.856zM511.936 788.928c-282.624 0-511.936-341.44-511.936-341.44s229.312-341.312 511.936-341.312c282.752 0 512.064 341.312 512.064 341.312s-229.312 341.44-512.064 341.44zM511.936 234.176c-117.696 0-213.312 95.68-213.312 213.312 0 117.888 95.616 213.44 213.312 213.44s213.376-95.552 213.376-213.44c0-117.632-95.68-213.312-213.376-213.312z" />
<glyph unicode="&#x25d4;" d="M512 959.552c-282.77 0-512-229.23-512-512s229.23-512 512-512 512 229.23 512 512-229.23 512-512 512zM658.744 210.296l-210.744 210.746v282.51h128v-229.49l173.256-173.254-90.512-90.512z" />
<glyph unicode="&#x2605;" d="M928.704 577.152h-289.024l-89.088 276.16c-5.312 16.448-20.672 29.056-37.888 29.056v0c-17.28 0-32.576-13.12-37.952-29.504l-88.96-275.712h-288.96c-17.28 0-32.576-9.152-37.952-25.6-5.376-16.384 0.512-33.408 14.464-43.584l233.856-169.088-88.96-273.728c-5.312-16.448 0.448-34.304 14.464-44.48 6.976-5.12 15.232-7.552 23.424-7.552s16.448 2.56 23.424 7.68l233.28 169.728 233.024-169.344c6.976-5.12 15.168-7.616 23.424-7.616 8.192 0 16.448 2.496 23.424 7.616 13.952 10.176 19.84 28.096 14.464 44.544l-88.96 273.664 233.92 168.704c14.016 10.176 19.904 27.072 14.528 43.456-5.312 16.448-20.672 25.6-37.952 25.6z" />
<glyph unicode="&#x2606;" d="M1019.456 568.704c-12.48 38.4-48.96 64-90.752 64h-248.704l-76.608 237.696c-12.992 40-49.472 67.456-90.688 67.456v0c-40.512 0-77.76-28.288-90.688-67.84l-76.544-237.312h-248.64c-41.792 0-78.272-25.6-90.688-64-12.608-39.040 1.344-81.472 34.752-105.664l201.152-145.408-76.544-235.328c-12.8-39.424 1.152-82.176 34.688-106.624 16.32-11.904 35.712-18.112 56-18.112 20.224 0 39.616 6.336 56.064 18.304l200.704 145.984 200.32-145.664c16.384-11.904 35.84-18.176 56.064-18.176s39.68 6.336 56.064 18.176c33.472 24.384 47.36 67.264 34.624 106.752l-76.544 235.072 201.152 144.96c33.408 24.256 47.424 66.688 34.816 105.728zM952.128 508.096l-233.92-168.704 89.024-273.664c5.376-16.448-0.512-34.368-14.464-44.544-6.976-5.12-15.232-7.616-23.424-7.616-8.256 0-16.448 2.496-23.424 7.616l-233.024 169.344-233.28-169.728c-6.976-5.12-15.232-7.68-23.424-7.68s-16.448 2.496-23.424 7.552c-13.952 10.176-19.776 28.032-14.464 44.48l88.96 273.792-233.92 169.152c-13.952 10.176-19.84 27.072-14.528 43.456 5.376 16.448 20.672 25.6 37.952 25.6h288.96l88.96 275.712c5.44 16.448 20.736 29.504 38.016 29.504v0c17.216 0 32.576-12.672 37.888-29.056l89.152-276.16h289.024c17.344 0 32.64-9.152 37.952-25.6 5.312-16.384-0.576-33.344-14.592-43.456z" />
<glyph unicode="&#x260f;" d="M749.696 346.432c-67.968-67.968-67.968-135.936-135.936-135.936-68.096 0-136.064 67.968-204.032 135.936-68.096 67.968-136.064 136-136.064 203.968s67.968 68.032 136 136c67.968 68.032-136 272-204.032 272-67.968 0-204.032-203.968-204.032-203.968 0-136 139.712-411.712 272-544 132.224-132.352 408-272.064 544-272.064 0 0 203.968 136 203.968 204.032 0.064 68.096-203.904 272-271.872 204.032z" />
<glyph unicode="&#x2611;" d="M482.174 145.968c17.964 17.91 47.196 17.75 64.924-0.526l167.748-172.458c17.72-18.222 32.084-12.33 32.084 13.070v901.046c0 25.39-20.506 45.246-45.892 45.246h-377.362c-25.39 0-44.5-19.856-44.5-45.246v-899.1c0-25.444 13.872-31.556 31.866-13.596l171.132 171.564z" />
<glyph unicode="&#x2612;" d="M1025.344 788.736c0 11.648-4.992 21.696-12.928 29.824-8.128 8-19.328 11.712-30.72 11.712h-936.384c-23.616 0-44.032-18.048-44.032-41.856v-676.736c0-23.872 20.352-41.344 44.032-41.344h936.32c11.456 0 22.656 3.392 30.72 11.392 7.936 8.128 12.928 17.984 12.928 29.632v677.376zM939.264 162.24h-850.624l-0.384 584h850.816l0.192-584zM224.256 556.288c0-45.454 36.85-82.304 82.304-82.304s82.304 36.848 82.304 82.304c0 45.454-36.848 82.304-82.304 82.304s-82.304-36.85-82.304-82.304zM791.552 486.208l-65.6-91.136-125.12 177.792-154.304-238.656c0 0-257.472 64-299.904-115.968h735.872l-9.664 28.224-81.28 239.744z" />
<glyph unicode="&#x2617;" d="M1011.328 365.248l-109.824 105.344-0.512 275.968c0 23.104-4.288 23.68-23.936 23.68l-143.040 0.384c-19.968 0-19.84-8.448-19.072-25.856v-105.856l-155.456 140.416c-28.672 29.76-59.52 29.76-88.064 0l-456.384-414.080c-23.232-24.128-16.384-44.928 17.472-44.928h107.648v-347.072c0-25.216 1.92-35.968 33.792-35.968h210.048v319.232h256v-319.232h227.712c36.8 0 38.656 10.752 38.656 35.968v347.072h81.088c33.728 0 47.040 20.8 23.872 44.928z" />
<glyph unicode="&#x261d;" d="M10.038 70.62c178.718-80.342 388.354-125.202 595.568-125.202 67.188 0 133.77 3.132 198.266 13.774 25.226 4.184 58.216 13.576 72.398 24.414 19.83 15.244 32.678 38.632 32.678 65.552 0 24.82-10.736 47.516-28.066 62.006h7.302c46.112 0 83.464 38.414 83.464 84.528s-37.348 84.528-83.464 84.528h41.734c46.12 0 83.464 36.886 83.464 83s-37.344 83.232-83.464 83.232c46.12 0 83.464 37.41 83.464 83.524s-37.344 83.524-83.464 83.524l-374.332-0.002c-28.82 0-52.17 23.196-52.17 51.988l26.266 173.322c2.514 7.912 3.772 16.22 3.772 24.78 0 46.118-37.348 83.436-83.468 83.436-38.594 0-71.154-26.29-80.548-61.768l-4.424-11.912c-53.616-170.68-176.254-326.57-354.97-427.132v-375.592h-0.006z" />
<glyph unicode="&#x261f;" d="M1000.374 813.938c-170.196 78.62-378.608 122.54-581.422 122.54-65.76 0-130.18-3.074-193.308-13.482-24.688-4.096-56.598-13.286-70.484-23.898-19.406-14.908-31.79-37.3-31.79-63.646 0-24.292 10.688-45.994 27.646-60.18h-7.14c-45.136 0-81.696-37.6-81.696-82.728 0-45.14 36.56-82.74 81.696-82.74h-40.848c-45.136 0-81.694-36.606-81.694-81.744 0-45.128 36.56-81.712 81.694-81.712-45.136 0-81.694-36.238-81.694-81.378s36.56-81.374 81.694-81.374h366.386c28.2 0 51.056-23.202 51.056-51.386l-25.706-169.898c-2.452-7.736-3.694-16.006-3.694-24.382 0-45.124 36.56-81.728 81.694-81.728 37.774 0 69.644 25.712 78.842 60.43l2.834 11.64c52.474 167.056 171.016 319.618 345.94 418.046l-0.002 367.62z" />
<glyph unicode="&#x2622;" d="M1025.5 159.552c0 288-256 224-256 448 0 18.56-1.788 34.42-5.048 47.928-16.83 113.018-92.156 203.72-189.772 231.36 0.866 3.948 1.32 8.032 1.32 12.21 0 33.278-28.8 60.502-64 60.502s-64-27.224-64-60.5c0-4.18 0.456-8.264 1.32-12.21-109.47-30.998-190.914-141.298-193.254-273.442-0.040-1.92-0.066-3.864-0.066-5.846 0-224.002-256-160.002-256-448.002 0-76.226 170.59-139.996 398.97-156.080 21.524-40.404 64.056-67.92 113.030-67.92s91.508 27.516 113.030 67.92c228.38 16.084 398.97 79.854 398.97 156.080 0 0.228-0.026 0.456-0.028 0.682l1.528-0.682zM826.246 105.456c-54.23-14.47-118.158-24.876-186.768-30.648-5.704 65.418-60.582 116.744-127.478 116.744s-121.774-51.326-127.478-116.744c-68.608 5.772-132.538 16.178-186.768 30.648-74.63 19.914-110.31 42.19-123.368 54.096 13.058 11.906 48.738 34.182 123.368 54.096 86.772 23.152 198.372 35.904 314.246 35.904s227.474-12.752 314.246-35.904c74.63-19.914 110.31-42.19 123.368-54.096-13.058-11.906-48.738-34.182-123.368-54.096z" />
<glyph unicode="&#x2624;" d="M903.616-64l-117.888 1.024c0-0.768-1.152 10.752-3.52 34.368-2.24 23.744-11.776 55.104-28.48 94.528-16.64 39.232-43.648 85.376-80.896 138.368-37.248 52.864-90.88 108.608-160.832 167.232-3.328 2.752-6.528 5.248-9.472 7.488-3.008 2.368-6.016 4.864-9.024 7.552-3.008 2.752-5.824 5.248-8.448 7.488-2.688 2.368-5.696 5.248-9.024 8.512-4.672 3.328-9.472 6.976-14.528 10.944-4.992 3.968-9.792 7.616-14.464 11.008-4.672 3.328-9.152 7.104-13.504 11.52-4.288 4.288-8.832 8.128-13.44 11.52-71.296 62.528-127.040 122.112-167.36 178.752-40.32 56.576-70.272 107.904-89.92 153.856s-31.616 84.416-35.968 115.392c-4.288 30.976-6.464 52.416-6.464 64.448l117.888-1.024c4.672-47.296 15.36-90.56 32-129.856s43.648-85.376 80.96-138.368c37.184-52.992 90.816-108.416 160.768-166.336 3.328-3.328 6.528-6.208 9.472-8.512 3.008-2.368 6.016-4.864 8.96-7.488 3.008-2.688 5.888-5.184 8.512-7.488 2.752-2.304 5.76-4.8 9.024-7.488 4.736-3.328 9.472-7.168 14.464-11.52s9.856-8.192 14.528-11.52 9.088-6.912 13.504-10.88c4.224-4.032 8.768-7.68 13.504-11.008 71.168-63.232 127.040-123.264 167.296-179.904 40.384-56.512 70.272-107.904 89.984-153.856 19.648-45.888 31.616-84.352 35.904-115.392 4.352-30.976 6.464-52.096 6.464-63.36zM633.792 96.768v-0.896c5.376 0.64 10.368-0.256 15.040-2.496 4.608-2.368 8.64-4.992 12.032-8 3.264-3.008 6.016-6.976 8-12.032s3.008-9.856 3.008-14.528c0-6.016-1.024-11.008-3.008-14.976s-4.736-7.872-8-11.52c-3.392-3.648-7.36-6.144-12.032-7.488s-9.664-2.368-15.040-3.008l-379.584 1.024c-4.032-14.656-6.976-27.136-9.024-37.504-1.984-10.24-3.52-19.264-4.48-26.88-1.024-7.744-1.664-13.248-1.984-16.512-0.256-3.328-0.448-5.312-0.448-5.952l-117.888 1.024c0 9.28 1.856 28.48 5.504 57.344 3.648 28.992 13.824 64.128 30.464 105.344 16.64 41.344 41.984 88.256 75.968 140.992 33.92 52.48 81.28 107.52 141.824 164.8 0.64 0 1.152-0.512 1.472-1.472s0.832-1.472 1.536-1.472 1.152-0.512 1.472-1.472 0.832-1.152 1.472-0.512c5.312-4.608 10.304-8.768 14.976-12.48 4.672-3.648 9.344-7.68 14.016-12.032 4.672-4.224 9.472-8.256 14.528-12.032 4.992-3.648 9.792-7.744 14.464-12.352 1.984-1.408 4.16-3.072 6.464-5.056s4.48-3.776 6.528-4.992c1.984-1.344 4.16-3.264 6.464-5.504 2.368-2.368 4.48-4.224 6.528-5.504-7.296-8-14.464-15.36-21.44-22.016s-13.824-13.888-20.48-21.504c-6.656-7.616-13.184-14.848-19.52-21.504s-12.48-13.248-18.496-19.904l155.84 1.024c5.376-0.768 10.368-1.984 14.976-4.032 4.736-1.984 8.64-4.864 12.032-8.512 3.392-3.776 6.016-7.744 8-12.032 1.984-4.352 3.008-9.152 3.008-14.528 0-4.608-1.024-9.472-3.008-14.528s-4.608-9.024-8-12.032-7.232-5.632-12.032-8c-4.608-2.368-9.6-3.136-14.976-2.496l-211.776-1.024v1.024c-4.672-7.36-9.024-14.016-12.992-20.032s-7.872-12.096-11.52-18.496c-3.648-6.272-6.976-12.224-9.984-17.984-3.008-5.632-6.208-11.776-9.472-18.368l349.568 1.088zM392.128 799.104c-5.376 0.704-10.176 1.664-14.528 3.008s-8.32 3.84-12.032 7.488c-3.584 3.712-6.4 7.68-8.384 11.968-2.048 4.352-3.008 9.856-3.008 16.512 0 4.032 1.024 8.32 3.008 12.992s4.8 8.512 8.448 11.52c3.712 3.008 7.872 5.632 12.48 8 4.672 2.304 9.344 3.136 14.016 2.496l377.6 1.024c4.032 12.672 6.976 24.448 9.024 35.456 1.984 10.944 3.52 19.968 4.48 26.944s1.6 12.672 1.984 16.96c0.384 4.352 0.512 6.144 0.512 5.504l117.888 1.024c0-11.328-1.728-31.104-5.504-59.456-3.648-28.288-13.76-63.424-30.528-105.408-16.64-41.984-41.856-88.768-75.904-140.352-33.984-51.648-81.28-106.752-141.888-165.312-0.64 0.64-1.152 1.152-1.472 1.472-0.384 0.32-0.896 0.832-1.536 1.472s-1.152 1.152-1.472 1.472c-0.32 0.32-0.832 1.152-1.472 2.496-5.312 3.328-10.24 7.168-14.848 11.52-4.736 4.352-9.344 8.32-14.016 12.032-4.8 3.648-9.536 7.616-14.528 11.968-4.992 4.288-9.856 8.128-14.528 11.456-1.984 1.984-4.096 3.648-6.464 4.992s-4.48 3.136-6.528 5.504c-1.984 2.304-4.096 4.352-6.464 6.016s-4.48 3.84-6.528 6.464c7.36 6.016 14.528 12.864 21.504 20.48s13.76 14.848 20.48 21.504c6.656 6.656 13.12 13.632 19.52 20.992 6.272 7.36 12.352 14.016 18.368 20.032l-153.792 0.96c-4.672-0.704-9.344 0.128-14.016 2.496-4.608 2.304-8.768 4.928-12.48 7.936-3.648 3.008-6.464 7.040-8.448 12.032s-3.008 9.792-3.008 14.464c0 5.312 1.024 10.176 3.008 14.464 1.984 4.352 4.8 8.32 8.448 12.032 3.712 3.648 7.872 6.464 12.48 8.448s9.344 3.328 14.016 4.032l209.856-1.024c4.608 6.656 8.896 12.992 12.864 19.008s7.872 12.288 11.52 18.944c3.776 6.656 7.232 12.8 10.496 18.496 3.392 5.632 6.4 11.84 9.024 18.496l-347.648-1.024z" />
<glyph unicode="&#x2629;" d="M593.728 722.88h80.704c14.656 0 27.456 8.512 33.088 21.952 5.568 13.44 2.112 28.608-8.128 38.912l-162.304 162.304c-14.016 14.080-35.776 14.336-49.92 0.192l-162.24-162.24c-10.304-10.304-13.568-25.6-8-39.040s18.624-22.144 33.216-22.144l80.704 0.064-0.064-143.104c0-9.6 3.84-18.688 10.624-25.472 6.72-6.72 15.936-10.56 25.472-10.56h90.816c19.968 0 36.032 16.128 36.032 36.096v143.040zM416.832 493.696c0 9.536-3.776 18.752-10.56 25.536s-15.936 10.56-25.536 10.56h-143.040v80.768c0 14.592-8.576 27.52-22.016 33.152-13.504 5.504-28.8 2.24-39.104-8.064l-162.24-162.24c-14.080-14.080-13.888-35.84 0.192-49.92l162.24-162.176c10.304-10.368 25.472-13.824 38.976-8.256 13.44 5.696 22.080 18.56 22.080 33.216l-0.064 80.64h143.040c19.904 0 35.968 16.128 35.968 35.968v90.816zM1009.984 473.152l-162.24 162.24c-10.368 10.368-25.472 13.696-38.912 8.128-13.568-5.568-22.144-18.56-22.144-33.152l0.128-80.704h-143.040c-19.968 0-36.032-16.064-36.032-35.968v-90.752c0-9.6 3.84-18.752 10.56-25.536 6.72-6.72 15.936-10.56 25.472-10.56h143.104v-80.704c0-14.656 8.256-27.328 21.76-32.96 13.44-5.568 28.544-2.048 38.912 8.32l162.24 162.24c14.016 14.016 14.272 35.328 0.192 49.408zM707.456 151.936c-5.696 13.504-18.496 21.952-33.216 21.952h-80.704l0.128 143.040c0 9.6-3.84 18.624-10.56 25.408s-15.872 10.56-25.408 10.56h-90.88c-19.904 0-36.032-16.128-36.032-36.032v-143.040h-80.704c-14.592 0-27.456-8.384-33.024-21.952-5.568-13.44-2.176-28.608 8.128-38.976l162.24-162.176c14.080-14.080 35.392-13.824 49.472 0.192l162.24 162.176c10.304 10.304 13.824 25.344 8.32 38.848z" />
<glyph unicode="&#x2630;" d="M971.172 708.502c0-31.226-26.98-55.382-58.198-55.382h-586.83c-31.218 0-57.114 24.158-57.114 55.382l-0.002 23.088c0 31.318 25.9 56.836 57.114 56.836h586.828c31.214 0 58.198-25.52 58.198-56.836l0.004-23.088zM971.172 435.368c0-31.124-26.98-56.524-58.198-56.524h-586.83c-31.218 0-57.114 25.398-57.114 56.524v23.286c0 31.124 25.9 55.502 57.114 55.502h586.828c31.214 0 58.198-24.376 58.198-55.502l0.002-23.286zM971.172 162.224c0-31.126-26.98-57.656-58.198-57.656l-586.83 0.002c-31.218 0-57.114 26.528-57.114 57.656v23.344c0 31.122 25.9 57.972 57.114 57.972h586.828c31.214 0 58.198-26.854 58.198-57.972l0.002-23.346zM192.232 708.502c0-31.226-26.29-55.382-57.572-55.382h-34.996c-31.228 0-57.372 24.158-57.372 55.382l0.002 23.088c0 31.318 26.14 56.836 57.37 56.836h34.994c31.284 0 57.574-25.518 57.574-56.836v-23.088zM192.232 435.368c0-31.124-26.29-56.524-57.572-56.524h-34.996c-31.228 0-57.372 25.398-57.372 56.524v23.286c0 31.124 26.14 55.502 57.372 55.502h34.994c31.282 0 57.572-24.376 57.572-55.502l0.002-23.286zM192.232 162.224c0-31.126-26.29-57.656-57.572-57.656l-34.996 0.002c-31.228 0-57.372 26.528-57.372 57.656v23.344c0 31.122 26.14 57.972 57.372 57.972h34.994c31.282 0 57.572-26.854 57.572-57.972l0.002-23.346z" />
<glyph unicode="&#x2637;" d="M952.386 591.882h-880.612c-44.694 0-46.934-21.516-44.508-48.102l40.074-438.014c2.42-26.588 8.718-49.062 53.362-49.062h782.754c45.512 0 50.918 22.594 53.34 49.182l40.070 437.48c2.424 26.586 0.21 48.516-44.48 48.516zM920.064 699.338c-5.38 21.37-31.794 40.032-58.708 40.032h-330.81c-26.906 0-64.512 14.74-83.568 33.568l-28.916 28.838c-19.056 18.854-56.664 34.512-83.572 34.512l-158.060 0.002c-26.906 0-51.35-22.81-54.304-49.358l-14.188-127.626h821.91l-9.784 40.032z" />
<glyph unicode="&#x263a;" d="M639.808 282.112c-3.84 5.696-7.488 22.976-8.576 40.128 17.984 19.776 66.048 77.888 83.136 153.792 17.536 7.296 32.448 24.832 41.536 49.856 12.544 34.368 13.248 81.92-12.288 111.552 3.904 100.48-18.496 177.024-66.432 227.456-39.552 41.664-94.912 62.72-164.544 62.72-69.696 0-125.056-21.056-164.608-62.656-48-50.432-70.336-126.912-66.496-227.456-25.536-29.696-24.896-77.184-12.352-111.616 9.152-25.088 24-42.624 41.6-49.856 17.024-75.968 65.088-134.208 83.136-153.92-1.088-17.024-4.736-34.304-8.576-39.936-78.464-14.208-384.768-154.624-384.768-312.32 0-12.032 9.792-34.304 21.824-34.304h980.416c12.032 0 21.76 22.272 21.76 34.24 0 157.696-306.304 298.112-384.768 312.32z" />
<glyph unicode="&#x263b;" d="M1006.976 663.296h-93.248v93.248c0 9.792-8 17.792-17.728 17.792h-53.312c-9.728 0-17.728-8-17.728-17.792v-93.248h-93.248c-9.728 0-17.728-8-17.728-17.728v-53.312c0-9.792 8-17.728 17.728-17.728h93.248v-93.312c0-9.728 8-17.728 17.728-17.728h53.312c9.728 0 17.728 8 17.728 17.728v93.312h93.248c9.728 0 17.728 8 17.728 17.728v53.312c0.064 9.728-7.936 17.728-17.728 17.728zM541.248 315.52c-3.328 4.8-6.4 19.52-7.296 33.92 15.232 16.704 55.872 65.856 70.336 130.048 14.784 6.208 27.456 20.992 35.2 42.176 10.56 29.12 11.136 69.312-10.432 94.336 3.2 84.928-15.68 149.632-56.256 192.256-33.408 35.2-80.32 52.992-139.2 52.992s-105.664-17.792-139.072-52.992c-40.576-42.624-59.52-107.328-56.192-192.32-21.632-25.024-21.056-65.28-10.432-94.336 7.744-21.184 20.288-36.032 35.2-42.176 14.336-64.256 54.976-113.408 70.208-130.112-0.96-14.464-3.968-29.056-7.232-33.792-66.24-11.968-325.312-120.256-325.312-253.504 0-10.176 8.256-18.432 18.432-18.432h828.864c10.176 0 18.432 8.256 18.432 18.432 0 133.248-259.008 241.472-325.248 253.504z" />
<glyph unicode="&#x263c;" d="M987.684 528.142c21.864 0 40.338-19.954 40.338-41.798v-79.418c0-21.83-18.462-39.958-40.338-39.958h-47.548c-21.696 0-44.994-16.924-51.494-37.718l-27.332-66.372c-10.29-19.27-6.042-47.688 9.276-63.024l33.866-33.7c15.442-15.49 15.442-40.716 0-56.186l-56.234-56.126c-15.404-15.414-40.628-15.414-56.074 0l-33.668 33.796c-15.442 15.386-43.852 19.6-63.034 9.192l-67.42-27.324c-20.76-6.514-38.74-29.614-38.74-51.46v-47.49c0-21.778-16.146-37.848-37.972-37.848l-79.356 0.010c-21.826 0-39.358 16.068-39.358 37.848v47.49c0 21.846-17.174 44.932-38.030 51.46l-66.65 27.324c-19.144 10.408-47.518 6.198-62.872-9.192l-33.888-33.796c-15.442-15.414-40.64-15.414-56.040 0l-56.204 56.134c-15.414 15.458-15.414 40.704-0.004 56.186l33.744 33.714c15.482 15.338 19.686 43.792 9.32 63.064l-27.372 66.27c-6.462 20.804-29.5 37.746-51.378 37.746h-47.63c-21.826 0-41.718 18.204-41.718 40.046v79.322c0 21.848 18.882 39.682 40.712 39.682l48.126-0.046c21.87 0 45.17 17.064 51.716 37.896l27.4 66.486c10.408 19.222 6.24 47.576-9.252 62.998l-33.626 33.78c-15.482 15.448-15.476 40.706 0.008 56.128l56.126 56.098c15.4 15.418 40.59 15.418 56.032 0l33.866-33.752c15.448-15.458 43.7-19.64 62.998-9.314l66.568 27.324c20.856 6.436 38.030 29.614 38.030 51.46l0.030 47.646c0 21.77 17.526 39.68 39.358 39.68h79.372c21.826 0 37.972-17.9 37.972-39.68v-47.624c0-21.848 17.972-45.010 38.744-51.46l66.758-27.324c19.256-10.32 47.94-6.114 63.258 9.314l33.982 33.752c15.434 15.418 40.716 15.418 56.126 0l56.272-56.098c15.434-15.422 15.448-40.682 0.008-56.178l-33.866-33.744c-15.314-15.418-19.552-43.778-9.268-62.998l27.332-65.39c6.5-20.83 29.674-36.842 51.494-36.842l47.58-0.004zM710.138 446.708c0 109.542-88.814 198.356-198.354 198.356-109.67 0-198.44-88.814-198.44-198.356 0-109.582 88.774-198.326 198.44-198.326 109.546 0.004 198.354 88.748 198.354 198.326z" />
<glyph unicode="&#x2640;" d="M549.76 957.376h27.52c2.88-0.96 3.84-3.008 6.848-3.008 3.968-1.856 10.88 0 16.64-0.96 1.024 0 3.008-3.072 4.928-3.072 3.904-0.96 7.808 0 11.776-0.96 1.088 0 1.984-1.856 4.992-3.008 1.856-0.96 6.912 0 9.728-0.96 1.088 0 1.984-1.92 3.904-3.008 2.048-1.92 6.912 0 11.84-3.968 5.952-1.92 5.952-3.008 9.856-3.968 4.864-1.856 12.736-4.864 19.584-9.792 5.952-3.968 12.736-12.992 20.672-14.912 4.864-2.048 12.672 0 18.56-1.088 1.088 0 2.944-1.92 4.992-1.92 3.968-0.96 8.832 0 13.632-0.96 6.848-1.152 14.72-5.12 21.696-5.12 0.96-0.96 1.856-1.856 3.008-1.856 32.256-7.040 66.688-40.832 75.648-63.68 3.904-7.936 7.808-13.952 9.664-20.928 3.008-8.896 6.848-19.904 8.832-31.808 2.048-16.832 2.048-22.848 0-41.728-1.856-8.896-4.864-18.944-8.832-28.864-4.8-11.968-10.816-27.84-17.728-39.744-3.904-6.016-5.824-18.88-16.576-20.928v6.016c4.8 12.8 8.768 26.816 12.672 40.832l-0.96 22.848c-2.944-7.936-5.824-16.96-8.768-25.856-0.96-2.048-2.944-3.008-2.944-6.016-1.024-5.888 0-11.968-1.024-17.792-1.984-10.944-7.872-27.968-11.776-39.808-2.048-6.976-8.96-13.888-10.816-21.952-2.048-3.968-1.024-12.864-1.024-14.72 0-28.864 23.552-74.624 23.552-83.52 0-9.984-11.776-19.968-19.648-23.040-3.968-1.856-8.96-2.816-12.864-3.968-3.904-0.96-9.664 1.152-13.632-1.92-8.96-4.864-2.944-6.016-2.944-11.904v-19.904c-1.024-5.056-2.048-9.984-4.864-14.912-3.968-5.056-12.864-9.92-12.864-12.032 0-2.816 4.992-13.76 4.992-16.832 0-4.928-3.968-6.912-9.856-16.832-5.76-9.088-5.76-22.912-7.808-34.944 0-2.88-2.048-6.784-3.968-10.944-14.72-23.808-29.44-23.808-48.064-23.808-2.88 0-30.528 2.048-32.384 2.048-9.856 0-36.352-3.968-36.352-19.968 0-50.688 69.824-76.48 107.008-92.352 62.016-26.88 151.296-70.656 187.712-152.128 5.824-12.864 10.688-25.856 14.656-38.72 7.808-24 10.816-54.848 13.824-81.664l-838.656-0.896c-3.968 15.872-8.768 46.656-8.768 48.768v51.648c2.944 29.824 7.808 64.768 22.592 93.504 5.824 12.992 12.672 24.896 22.656 35.904 34.368 38.72 76.544 54.656 112.832 74.432 44.224 24.96 113.024 56.704 133.568 112.448 5.696 15.744 16.512 50.432 16.512 70.272 0 2.112-1.984 16.064-3.904 22.848-2.048 8.128-14.72 48.768-27.52 48.768-15.808 0-23.68-22.848-23.68-31.744 0-3.072 2.048-7.936 3.008-12.864-0.96-1.152-0.96-2.048-3.008-2.048-7.808 0-21.504 24.96-22.656 27.84-1.856 6.016-2.816 12.992-4.8 17.856-0.96 3.968-6.912 7.040-9.728 10.048-8.96 7.936-15.872 15.872-20.672 23.744-0.96 1.92-3.008 4.992-4.864 8-3.008 4.864-4.864 9.984-6.912 14.848-1.856 6.080-1.856 16.896-1.856 19.904 0 20.928 8.832 37.824 25.408 46.784-29.376 5.888-64.832-5.056-86.336 34.816 0.96 0.96 0.96 1.856 3.968 1.856 1.856 0 8.768-4.864 14.72-6.912 4.864-1.92 14.592-4.928 17.536-4.928 10.816 0 41.344 14.848 45.184 15.808-3.904 1.152-9.856 0-12.672 1.152-6.912 1.024-14.72 2.88-22.656 3.968-3.008 0-23.552 7.936-23.552 14.912 0 2.88 1.024 3.968 3.968 3.968 1.856 0 3.968-2.048 7.872-3.008 4.864-2.048 14.72-3.008 17.536-3.008 11.776 0 27.456 6.016 32.512 14.912 1.856 3.008 1.856 8.896 1.856 10.944 0 3.008-0.96 20.8-2.816 29.824 0 1.92-2.048 4.928-2.048 6.976v38.784c0.96 5.888 3.008 12.864 3.968 18.88 3.008 9.856 3.968 19.904 7.808 29.888 1.024 0.96 3.008 2.88 3.008 4.864 9.728 32.896 47.040 75.648 77.568 91.52 0.896 0 1.984 2.048 2.944 3.008 8.832 3.968 17.792 10.944 27.52 12.864 0.96 0 2.944 2.048 3.968 3.008 5.952 0 11.776 3.968 17.664 4.928 1.024 0 1.024 3.008 3.968 3.008 3.008 0.96 6.912 0 9.728 0.96 1.088 0 1.984 2.048 3.968 3.008 3.84 2.048 10.752-3.072 16.704 3.968h19.648c3.904 0.896 7.872 0.896 11.712 3.008h36.48c5.824-2.112 12.672-3.008 15.68-3.008z" />
<glyph unicode="&#x2642;" d="M710.4 812.8c0-6.4 0-6.4 0-12.8 0 0 0-6.4 0-6.4 6.4-6.4 12.8-19.2 19.2-25.6 0-6.4 6.4-12.8 6.4-19.2 0-12.8-6.4-19.2-6.4-25.6 0 0 12.8-32 12.8-44.8 0-6.4 6.4-19.2 6.4-25.6 0-12.8 12.8-25.6 12.8-38.4 0-19.2-19.2-25.6-19.2-57.6 0-19.2 12.8-38.4 12.8-51.2 0-6.4 6.4-12.8 6.4-12.8 0-6.4 0-6.4-6.4-12.8s-12.8-6.4-19.2-6.4c0 0-6.4-6.4-6.4-6.4 0-6.4 0-19.2 0-19.2s0-12.8 0-12.8-12.8-12.8-12.8-19.2c0 0 0-6.4 0-6.4 0-12.8-19.2-19.2-19.2-38.4 0 0 6.4-25.6 6.4-32s0-19.2-6.4-25.6c0 0-6.4-6.4-6.4-6.4s-6.4 0-6.4 0c0 0-6.4 0-12.8-6.4-19.2-6.4-51.2 0-64-6.4s0-12.8-6.4-32c-19.2-25.6-12.8-32 38.4-51.2 0 0 204.8-76.8 275.2-128 44.8-38.4 44.8-140.8 44.8-140.8h-934.4c0 0 12.8 192 76.8 236.8 83.2 57.6 102.4 38.4 192 83.2 89.6 32 89.6 198.4 89.6 198.4 0 6.4-6.4 25.6-6.4 32-6.4 25.6-25.6 51.2-38.4 76.8-12.8 19.2-25.6 70.4-25.6 96v32c6.4 38.4 19.2 76.8 44.8 115.2 6.4 6.4 19.2 25.6 25.6 25.6 6.4 6.4 19.2 12.8 25.6 19.2 32 19.2 64 19.2 89.6 25.6h51.2c38.4 0 76.8-12.8 121.6-32 12.8-19.2 32-25.6 38.4-38.4z" />
<glyph unicode="&#x2660;" d="M651.52 743.232v-216h215.488v216h-215.488zM705.6 581.504l0.064 108.288 106.368-0.256 0.896-108.032h-107.328zM489.728 258.496h59.264c-19.712-37.376-51.072-62.592-89.984-76.48-11.584 39.744-17.728 81.664-17.728 125.056 0 80.256 22.144 155.072 59.328 220.8h96.896v161.6h-161.6v-161.6h2.368c-35.456-56.448-60.416-119.744-70.528-187.968-31.104 18.88-55.552 43.2-71.424 80.256h85.632v215.488h-269.312v-215.488h151.424c18.816-60.672 52.544-103.872 98.624-137.536-0.128-4.928-0.256-9.856-0.256-14.848 0-127.616 49.088-244.032 129.984-332.672h143.296c-68.992 49.152-123.776 115.904-157.376 193.344 46.848 29.952 83.328 73.152 102.592 130.048h178.176v215.552l-270.016 0.32 0.64-215.872zM489.728 635.648h53.888v-53.888h-53.888v53.888zM166.528 474.048v107.712h161.6v-107.712h-161.6zM543.616 420.16l162.368 0.576 0.128-108.416h-162.56v107.84zM328.128 851.136h-161.6v-161.6h161.6v161.6zM274.24 743.36h-53.824v53.888h53.888v-53.888zM604.288 959.104l-222.272-0.256v-215.488h215.488l6.784 215.744zM543.616 797.248h-107.712v107.712h107.712v-107.712z" />
<glyph unicode="&#x2663;" d="M489.728 602.944h44.544v-44.544h-44.544v44.544zM222.592 558.4h133.568v-89.024h-133.568v89.024zM267.136 736.512h44.544v-44.544h-44.544v44.544zM755.392 644.864l-87.232 2.816-0.064-89.472h88.768zM845.888 959.104h-667.776c-98.368 0-178.112-79.744-178.112-178.112v-667.84c0-98.304 79.744-178.048 178.112-178.048h667.84c98.304 0 178.048 79.744 178.048 178.048v667.84c0 98.368-79.744 178.112-178.112 178.112zM400.704 870.080l183.744 0.192-5.632-178.304h-178.112v178.112zM222.592 780.992h133.568v-133.568h-133.568v133.568zM712.32 291.264h-147.264c-15.872-47.040-46.016-82.752-84.8-107.52 27.776-64.064 73.088-119.232 130.048-159.808h-118.4c-66.816 73.28-107.392 169.472-107.392 274.944 0 4.096 0.064 8.256 0.192 12.288-37.888 27.776-65.216 63.808-80.768 113.664h-125.824v178.112h222.592v-178.048h-70.016c13.12-30.272 32.704-50.816 58.24-66.304 8.384 56.768 30.848 108.48 60.416 155.328h-4.16v133.504h133.568v-133.568h-80.064c-30.72-54.336-49.024-116.16-49.024-182.464 0-35.84 5.12-70.528 14.656-103.36 31.616 11.264 55.68 33.216 72 63.168h-46.592l-0.512 178.432 223.168-0.256v-178.112h-0.064zM801.536 513.344h-178.112v178.496h178.112v-178.496zM445.184 825.536h89.024v-89.024h-89.024v89.024zM663.808 425.344l-129.536-0.512-0.064-89.088h134.4z" />
<glyph unicode="&#x2691;" d="M226.502 93.29c0-22.616-19.54-40.97-42.124-40.97-22.614 0-42.156 18.35-42.156 40.97v704.482c0 22.62 19.54 40.976 42.156 40.976 22.578 0 42.124-18.356 42.124-40.976v-27.988c0 0 47.28 36.21 158.336 36.21 115.354 0 185.712-81.948 274.948-81.948 97.85 0 138.4 29.68 152.334 43.588 10.328 10.328 20.318 18.512 33.946 18.512 20.164 0 33.608-16.358 33.608-36.366v-399.436c0-17.512-7.988-36.216-18.816-47.040-33.756-33.91-95.906-70.774-181.116-70.774-99.762 0-191.384 81.948-306.74 81.948-98.304 0-146.5-43.926-146.5-43.926v-177.26z" />
<glyph unicode="&#x2706;" d="M502.016 221.056c-92.096 0-167.68 74.688-167.68 166.784v404.864c0 92.16 75.52 166.848 167.68 166.848s167.68-74.688 167.68-166.848v-404.864c0-92.096-75.584-166.784-167.68-166.784zM757.888 611.328c-35.52 0-36.288-32.768-36.288-32.768v-221.504c0-96.704-104.64-187.84-218.688-187.84-117.824 0-220.416 93.824-220.416 187.84v221.504c0 0 0.832 33.664-34.624 33.664-34.56 0-37.248-33.664-37.248-33.664v-221.504c0-123.136 107.84-226.624 227.584-254.208v-79.488h-98.368c-24.128 0-43.712-19.776-43.712-43.904 0-24 19.584-43.904 43.712-43.904h324.544c24.128 0 43.712 19.904 43.712 43.968 0 24.128-19.584 43.904-43.712 43.904h-98.496v79.104c119.744 27.008 227.584 130.88 227.584 254.592v221.44c-0.064 0-2.88 32.768-35.584 32.768z" />
<glyph unicode="&#x2708;" d="M992.96 840c-19.072-6.656-958.336-337.6-976.832-344.128-15.744-5.568-19.264-19.136-0.512-26.496 22.144-8.896 209.984-84.224 209.984-84.224h-0.064l124.544-49.856c0 0 599.552 440.32 607.68 446.272s17.536-5.248 11.712-11.712c-5.952-6.464-435.456-470.976-435.456-470.976-0.064 0-0.064 0-0.064 0l-25.024-27.904 33.152-17.856c0 0 257.28-138.496 275.584-148.352 16.064-8.64 36.992-1.408 41.536 18.56 5.568 23.552 157.44 678.4 160.832 692.864 4.416 19.008-8.064 30.528-27.072 23.808zM348.992 36.288c0-13.632 7.68-17.408 18.304-7.808 13.824 12.608 157.632 141.632 157.632 141.632l-176 91.136v-224.96z" />
<glyph unicode="&#x2709;" d="M1018.624 147.136c2.112 7.36 3.968 15.168 3.968 23.168v573.056c0 8-1.856 15.744-3.968 23.104l-309.376-310.272 309.376-309.056zM489.024 399.552c12.544-12.224 33.152-12.096 45.44 0.192l425.216 424.768c-7.424 2.112-15.232 2.816-23.232 2.816h-848.896c-8.064 0-15.872-0.704-23.296-2.816l424.768-424.96zM578.88 324.864c-17.28-16.768-41.024-27.2-66.88-27.2-26.368 0-50.112 10.688-67.264 27.84-11.264 11.008-71.552 72.128-71.552 72.128l-308.864-309.312c7.36-2.112 15.104-3.776 23.232-3.776h848.896c8 0 15.808 1.6 23.168 3.776l-309.056 309.12c0 0-60.736-61.568-71.68-72.576zM5.248 766.464c-2.112-7.36-3.904-15.040-3.904-23.104v-573.056c0-8 1.856-15.808 3.968-23.168l309.12 309.12-309.184 310.208z" />
<glyph unicode="&#x270e;" d="M212.58 121.634c-3.792 3.868-6.49 6.762-7.884 8.13 0 0.152-0.056 0.284-0.056 0.284-41.038 40.832-71.054 80.014-90.906 116.852-5.66-4-10.578-10.764-13.038-20.136l-70.996-237.702c-8.146-27.184 7.054-41.522 33.72-31.6l221.984 82.222c8.888 3.316 15.318 8.288 19.258 14.074-43.044 21.806-76.854 52.708-92.082 67.876zM190.084 345.396c-0.766-11.86 2.756-57.39 90.162-144.58 17.038-18.488 71.376-67.048 114.342-67.86 7.676-0.28 14.282 1.506 21.124 4.96l411.942 412.226c2.49 2.47 4.266 5.23 5.51 8.268-50.132 21.66-90.366 58.090-107.466 75.052-3.736 4-6.55 6.756-7.852 8.28 0 0-0.148 0-0.206 0.134-46.996 46.902-79.408 91.468-98.58 132.994-3.736-1.378-7.172-3.308-10.136-6.072l-417.592-417.598c-0.504-1.796-0.978-3.596-1.248-5.804zM702.802 857.922c-1.036-11.866 2.638-57.398 89.954-144.708 17.244-18.356 71.53-66.924 114.28-67.752 7.824-0.262 14.37 1.522 20.922 4.98l63.054 63.038c9.922 9.792 9.774 25.81 0 35.734l-183.084 182.926c-9.658 9.798-25.872 9.798-35.586 0l-68.296-68.566c-0.772-1.66-1.098-3.45-1.244-5.652z" />
<glyph unicode="&#x2713;" d="M828.846 940.15h-684.37c-67.38 0-120.602-56.618-120.602-124.006v-735.048c0-67.39 53.222-124.036 120.602-124.036h735.048c67.378 0 122.712 56.648 122.712 124.036l-0.002 665.982-173.388 193.072zM756.462 571.126c0-33.696-27.010-61.080-60.7-61.080l-367.524 0.004c-33.686 0-63.318 27.386-63.318 61.080l-0.002 307.576h491.546l-0.002-307.58zM695.018 817.262h-122.886v-245.772h122.886v245.772z" />
<glyph unicode="&#x2714;" d="M957.464 769.294l-105.442 85.074c-23.036 18.66-57.222 14.878-75.882-8.084l-378.356-468.724-162.846 147.982c-21.992 20.096-56.306 18.402-76.21-3.528l-98.198-108.034c-19.96-21.932-18.332-56.262 3.662-76.218l314.942-286.164c21.988-19.96 55.058-17.354 73.59 5.864l60.946 76.344 451.894 559.544c18.584 23.094 14.992 57.276-8.1 75.944z" />
<glyph unicode="&#x2717;" d="M958.848 693.632c0-29.376-23.808-53.248-53.184-53.248h-32.384v-618.368c0-46.976-37.632-86.4-84.672-86.4h-553.152c-46.976 0-84.672 39.36-84.672 86.4v618.368h-32.384c-29.312 0-53.184 23.872-53.184 53.248s23.872 53.248 53.184 53.248h138.752v126.272c0 46.976 37.632 86.4 84.672 86.4h340.416c47.040 0 84.672-39.424 84.672-86.464v-126.272h138.752c29.376 0.064 53.184-23.808 53.184-53.184zM660.544 804.992c0 26.048-20.416 48.192-46.4 48.192h-204.224c-25.984 0-46.4-22.208-46.4-48.192v-58.112h297.024v58.112zM321.408 639.104c-23.36 0-42.112-19.264-42.112-42.624v-510.656c0-23.36 18.752-42.624 42.112-42.624s42.112 19.264 42.112 42.624v510.656c0.064 23.36-18.688 42.624-42.112 42.624zM512.064 639.104c-23.424 0-42.112-19.264-42.112-42.624v-510.656c0-23.36 18.688-42.624 42.112-42.624 23.36 0 42.112 19.264 42.112 42.624v510.656c0 23.36-18.752 42.624-42.112 42.624zM702.656 639.104c-23.424 0-42.112-19.264-42.112-42.624v-510.656c0-23.36 18.688-42.624 42.112-42.624 23.36 0 42.048 19.264 42.048 42.624v510.656c0.064 23.36-18.624 42.624-42.048 42.624z" />
<glyph unicode="&#x2718;" d="M921.636 237.318l-209.862 209.868 209.862 209.87c21.988 21.942 21.902 57.946 0 79.9l-119.924 119.886c-21.992 21.948-57.958 21.948-79.942 0l-209.774-209.87-209.868 209.866c-21.942 21.948-57.958 21.948-79.94 0l-119.924-119.886c-21.944-21.944-21.944-57.95 0-79.98l209.858-209.87-209.852-209.784c-21.944-22.022-21.944-57.954 0-79.974l119.924-119.806c21.902-22.022 57.91-22.022 79.94 0l209.778 209.782 209.858-209.866c21.992-21.942 57.958-21.942 79.942 0.084l119.932 119.806c21.98 22.020 21.98 58.030-0.008 79.974z" />
<glyph unicode="&#x272a;" d="M829.198 856.030h-632.76c-26.074 0-47.206 22.814-47.206 48.898 0 26.016 21.128 48.898 47.206 48.898h632.76c26.066 0 47.186-22.878 47.186-48.898-0.002-26.090-21.124-48.898-47.186-48.898zM462.21 789.352h-247.63c0 0-16.458-181.792 77.882-319.314 0 0 54.178 66.074 169.746 81.962l0.002 237.352zM811.020 789.352h-251.022v-237.35c115.574-15.886 171.46-81.962 171.46-81.962 94.318 137.518 79.562 319.312 79.562 319.312zM512.788-57.868c-149.52 0-271.212 121.686-271.212 271.16 0 149.566 121.686 271.198 271.212 271.198 149.544 0 271.212-121.634 271.212-271.198 0-149.472-121.664-271.16-271.212-271.16zM512.788 390.202c-97.52 0-176.868-79.338-176.868-176.914 0-97.472 79.34-176.81 176.868-176.81 97.52 0 176.85 79.338 176.85 176.81-0.002 97.576-79.326 176.914-176.85 176.914zM499.87 321.116c7.128 21.912 18.764 21.912 25.888 0l8.676-26.010c7.128-21.924 31.774-39.168 54.792-39.168h28.088c23.028 0 26.614-11.752 7.996-25.276l-22.716-16.878c-18.618-13.542-28.044-42.688-20.93-64.544l8.66-26.826c7.128-21.856-2.31-28.796-20.93-15.216l-22.714 16.476c-18.65 13.532-49.116 13.518-67.738-0.014l-22.748-16.5c-18.62-13.592-28.044-6.68-20.93 15.172l8.696 26.736c7.128 21.856-2.276 50.842-20.93 64.378l-22.714 17.212c-18.626 13.526-15.064 25.276 8.006 25.276h28.044c23.068 0 47.724 17.246 54.814 39.168l8.69 26.014z" />
<glyph unicode="&#x2730;" d="M512.704 882.368v0c-17.28 0-32.576-13.12-37.952-29.504l-88.96-275.712h-288.96c-17.28 0-32.576-9.152-37.952-25.6-5.376-16.384 0.512-33.408 14.464-43.584l233.856-169.088-88.96-273.728c-5.312-16.448 0.448-34.304 14.464-44.48 6.976-5.12 15.232-7.552 23.424-7.552s16.448 2.56 23.424 7.68l233.28 169.728c0.064-0.064-0.128 532.992-0.128 691.84z" />
<glyph unicode="&#x2742;" d="M846.318 948.446h-667.63c-91.808 0-167.89-74.252-167.89-166.058v-667.572c0-91.806 76.082-166.054 167.89-166.054h667.628c91.806 0 168.99 74.246 168.99 166.054v667.572c0.002 91.806-77.184 166.058-168.988 166.058v0zM366.27 219.332c0-45.834-37.288-83.004-83.432-83.004-45.966 0-83.308 37.164-83.308 83.004 0 45.724 37.344 83.128 83.308 83.128 46.148 0.002 83.432-37.406 83.432-83.128zM612.716 137.112h-120.474c0 77.27-30.726 151.436-85.976 206.688-55.316 55.384-129.852 85.068-207.122 85.068v120.038c226.982 0 413.572-184.816 413.572-411.794zM825.416 137.112h-120.28c0 275.276-225.882 504.456-505.986 504.456v119.924c347.71-0.004 626.266-281.496 626.266-624.38z" />
<glyph unicode="&#x274a;" d="M866.688 960.896c-383.296 0-1027.584-196.416-636.032-652.672-71.68-70.976-332.672-217.472-102.912-366.016 37.056-22.4 91.456 30.016 52.416 74.24-33.92 38.976 61.376 165.12 124.736 209.28 37.824-39.616 73.536-70.4 101.76-92.096 495.168-317.376 566.272 528.512 583.552 658.368 17.984 148.992-17.92 168.896-123.52 168.896zM278.016 354.304c-40.32 51.84-167.616 235.52-8.96 356.416 185.536 141.312 422.4 179.776 607.872 179.776 51.904-5.76 51.904-32.64 51.904-81.92 0-48.64-62.144-435.136-175.36-570.752-71.616-75.52-167.68-161.28-388.352 35.904 46.016 47.232 131.776 133.696 131.776 133.696s154.24-81.92 218.816-105.536c52.48-19.264 30.144 30.72-26.88 75.52-31.36 24.384-123.456 104.32-123.456 104.32l112.576 127.296c0 0 53.76-10.24 91.52-16 37.76-5.696 79.36-3.84 53.76 21.76-19.904 19.2-102.4 51.84-102.4 51.84s107.52 150.336 75.52 138.88c-32.64-11.584-118.4-98.56-118.4-98.56s-11.52 14.656-28.096 41.536c-27.52 42.88-51.2 65.984-51.2 31.36 0-34.56 30.656-124.096 30.656-124.096l-119.68-106.88c0 0-30.656 54.464-62.656 100.48-32.64 46.080-91.584 133.12-86.4 69.12 5.76-63.36 51.904-153.6 72.96-234.816-35.2-33.408-114.56-96.768-155.52-129.344z" />
<glyph unicode="&#x274d;" d="M803.968 550.016c0-52.864-17.92-101.632-53.632-146.496s-84.416-80.32-146.176-106.368c-61.824-25.92-128.896-39.040-201.536-39.040-32.64 0-66.112 3.136-100.288 9.216-47.104-33.472-99.968-57.792-158.464-73.024-13.696-3.392-30.080-6.464-49.088-9.152h-1.664c-4.16 0-8.064 1.472-11.712 4.608-3.648 3.008-5.76 6.976-6.528 12.032-0.384 1.088-0.576 2.304-0.576 3.648s0.064 2.56 0.256 3.712 0.576 2.304 1.152 3.456l1.408 2.88c0 0 0.64 1.088 1.984 3.136s2.112 3.072 2.304 2.88 1.088 0.768 2.56 2.816c1.536 2.112 2.304 3.008 2.304 2.624 1.92 2.176 6.272 6.912 13.12 14.208s11.776 12.8 14.784 16.832 7.296 9.472 12.8 16.576c5.504 6.976 10.304 14.4 14.272 21.888 3.968 7.616 7.936 16 11.712 25.152-47.168 27.2-84.16 60.8-111.168 100.736-27.008 39.872-40.448 82.496-40.448 127.68 0 52.8 17.856 101.632 53.568 146.496 35.712 44.8 84.416 80.256 146.24 106.304 61.76 26.048 128.896 39.040 201.472 39.040 72.64 0 139.712-13.056 201.536-39.040 61.76-26.048 110.528-61.44 146.176-106.304s53.632-93.696 53.632-146.496zM1022.72 404.032c0-45.568-13.44-88.256-40.448-127.936-26.944-39.68-64.064-73.28-111.168-100.544 3.84-9.216 7.744-17.536 11.776-25.152 3.968-7.616 8.704-14.848 14.272-22.016 5.504-6.912 9.728-12.416 12.736-16.448 3.072-3.968 8-9.6 14.848-16.832s11.2-12.032 13.056-14.336c0.384-0.384 1.216-1.216 2.304-2.56 1.152-1.344 1.984-2.176 2.56-2.816 0.576-0.576 1.344-1.472 2.24-2.88 1.024-1.28 1.6-2.368 1.984-3.136l1.408-2.88c0 0 0.384-1.152 1.216-3.392 0.768-2.304 0.832-3.52 0.256-3.776-0.576-0.128-0.768-1.344-0.576-3.712-1.152-5.248-3.648-9.472-7.424-12.48-3.84-3.072-7.936-4.352-12.48-3.968-19.072 2.624-35.392 5.696-49.024 9.152-58.56 15.168-111.36 39.488-158.528 72.96-34.24-6.080-67.648-9.152-100.288-9.152-102.976 0-192.704 25.088-269.056 75.264 22.144-1.472 38.784-2.24 50.24-2.24 61.248 0 119.936 8.64 176.128 25.664 56.192 17.088 106.368 41.536 150.528 73.472 47.488 35.008 83.968 75.264 109.376 120.896 25.472 45.568 38.272 93.824 38.272 144.768 0 29.248-4.352 58.176-13.12 86.656 49.024-26.944 87.808-60.8 116.288-101.44s42.624-84.352 42.624-131.136z" />
<glyph unicode="&#x274f;" d="M905.408 535.104c0-15.36-12.544-27.968-27.968-27.968h-288.832c-15.36 0-27.968 12.544-27.968 27.968v11.392c0 15.424 12.544 28.032 27.968 28.032h288.896c15.36 0 27.968-12.608 27.968-28.032v-11.392zM905.408 424.128c0-15.296-12.544-27.968-27.968-27.968h-288.832c-15.36 0-27.968 12.608-27.968 27.968v11.456c0 15.296 12.544 27.968 27.968 27.968h288.896c15.36 0 27.968-12.672 27.968-27.968v-11.456zM905.408 313.088c0-15.296-12.544-27.968-27.968-27.968h-288.832c-15.36 0-27.968 12.608-27.968 27.968v11.456c0 15.36 12.544 28.032 27.968 28.032h288.896c15.36 0 27.968-12.608 27.968-28.032v-11.456zM1024 704.896c0 36.48-30.976 62.656-67.456 62.656h-891.2c-36.48 0-65.344-25.344-65.344-61.76v-574.464c0-36.416 29.248-67.776 65.6-67.776h889.536c36.416 0 68.544 31.040 68.544 67.52l0.32 573.824zM64 639.552h896v-512h-896v512zM388.416 327.424c-0.256 1.28-0.512 2.688-0.704 4.16 8.96 10.56 24.96 32.192 32.32 59.712 7.68 4.864 13.952 13.12 17.92 24 5.824 15.872 6.272 37.568-4.288 52.928 1.024 42.432-9.216 75.2-30.4 97.408-18.24 19.328-43.584 29.12-75.264 29.12-31.616 0-56.96-9.792-75.328-29.056-21.12-22.208-31.296-54.912-30.336-97.344-10.496-15.424-10.112-37.056-4.288-52.928 3.968-10.88 10.24-19.136 17.856-24 7.424-27.52 23.424-49.152 32.384-59.712-0.192-1.536-0.384-2.944-0.64-4.288-43.072-10.688-160.64-54.72-160.64-124.48 0-10.816 8.768-11.392 19.584-11.392h402.944c10.816 0 19.584 0.576 19.584 11.392-0.064 69.76-117.632 113.792-160.704 124.48z" />
<glyph unicode="&#x2751;" d="M918.434 866.686h-633.82c-49.798 0-89.33-37.436-89.33-87.242l0.004-105.316h-106.674c-49.798 0-89.818-40.878-89.818-90.684v-543.272c0-49.798 40.014-93.084 89.818-93.084h633.822c49.798 0 93.786 43.28 93.786 93.090l-0.012 103.4h102.218c49.798 0 94.276 42.8 94.276 92.6l0.004 543.268c0 49.808-44.468 87.24-94.274 87.24zM725.824 37.48h-636.644v448.014h106.108v-249.302c0-49.798 39.534-92.6 89.33-92.6l441.206-0.014v-106.098zM285.678 233.972v448.014h632.722v-448.014h-632.722z" />
<glyph unicode="&#x2762;" d="M656.302 138.528h-286.718c-21.812 0-39.732-16.922-39.732-38.304s17.914-38.304 39.732-38.304h286.718c21.9 0 39.828 16.922 39.828 38.304s-17.934 38.304-39.828 38.304zM606.52 9.504h-187.070c-21.9 0-39.828-18.902-39.828-40.28 0-21.426 17.924-40.362 39.828-40.362h187.070c21.822 0 39.734 18.94 39.734 40.362-0.002 21.38-17.91 40.28-39.734 40.28zM512.938 963.082c-180.584 0-327.056-146.472-327.056-327.058 0-103.492 73.188-193.61 73.188-193.61 27.532-34.020 50.25-97.736 50.25-141.54v-25.366c0-43.8 35.582-80.528 79.39-80.528h242.214c43.808 0 81.6 36.732 81.6 80.528v20.694c0 43.76 22.092 107.036 50.226 140.586 0 0 77.708 92.932 77.708 199.238 0.008 180.584-146.842 327.056-327.52 327.056zM746.772 590.118h-68.746c1.992 12.096 3.502 21.894 3.502 33.058 0 92.366-73.832 168.024-162.538 174.644l-0.004 68.61c129.024-6.708 230.406-113.358 230.406-243.248 0.002-11.044-1.166-20.968-2.62-33.064z" />
<glyph unicode="&#x2764;" d="M511.070 671.678c-145.682 279.466-515.694 164.95-511.562-112.13 4.502-302.086 374.99-354.5 512.832-553.996v0c133.394 199.492 507.042 251.896 511.546 553.996 4.132 277.076-367.166 391.596-512.816 112.13z" />
<glyph unicode="&#x2927;" d="M323.2 796.352l79.168 79.168c14.272 14.272 18.56 35.136 10.88 53.824-7.808 18.624-25.984 30.208-46.208 30.208h-317.888c-27.648 0-49.152-21.12-49.152-48.704v-317.888c0-20.224 11.776-38.464 30.464-46.208 18.624-7.744 39.936-3.456 54.208 10.816l79.040 79.168 140.16-140.16c9.344-9.344 22.080-14.656 35.328-14.656s25.92 5.248 35.328 14.656l88.96 88.96c19.52 19.52 19.52 51.136 0 70.656l-140.288 140.16zM374.464 398.528c-9.408 9.408-22.080 14.656-35.328 14.656s-25.984-5.248-35.328-14.656l-140.224-140.224-79.168 79.168c-14.272 14.336-35.328 18.56-53.952 10.816-18.688-7.744-30.464-25.92-30.464-46.080v-317.952c0-27.584 21.504-48.704 49.152-48.704h317.952c20.16 0 38.4 11.52 46.144 30.208s3.456 39.808-10.816 54.144l-79.232 78.976 140.224 140.096c19.52 19.52 19.52 51.072 0 70.592l-88.96 88.96zM975.744 959.552h-317.952c-20.16 0-38.4-11.584-46.144-30.208-7.68-18.688-3.456-39.872 10.88-54.144l79.104-78.976-140.16-140.096c-19.52-19.52-19.52-51.072 0-70.592l89.024-88.96c9.344-9.344 22.080-14.656 35.328-14.656s25.92 5.312 35.328 14.656l140.16 140.16 79.104-79.168c14.336-14.272 35.008-18.56 53.632-10.816s29.952 25.984 29.952 46.144v317.952c0 27.584-20.672 48.704-48.256 48.704zM993.984 348.288c-18.624 7.744-39.744 3.52-53.952-10.816l-78.912-79.168-140.032 140.224c-9.344 9.344-22.080 14.656-35.328 14.656s-25.92-5.248-35.328-14.656l-88.96-89.024c-19.52-19.52-19.52-51.136 0-70.656l140.16-140.224-79.104-79.104c-14.336-14.272-18.56-35.136-10.88-53.824 7.744-18.624 25.984-30.144 46.144-30.144h317.952c27.584 0 48.256 21.12 48.256 48.704v317.952c0 20.16-11.328 38.336-30.016 46.080z" />
<glyph unicode="&#x29c3;" d="M201.554 9.466l205.508 191.732c69.956-46.008 152.598-67.658 237.408-60.758 100.58 8.164 191.948 55.070 257.264 131.95 119.782 141.012 118.73 352.498-2.318 491.986-12.594 14.432-26.308 28.074-40.978 40.504-158.768 134.904-397.592 115.44-532.466-43.292-94.634-111.358-113.516-266.594-57.756-395.694-1.894-1.58-4.002-2.736-5.846-4.456l-208.066-194.082c-25.264-23.622-36.71-56.466-33.896-88.434 2.052-23.128 11.508-45.832 28.604-64.14 40.638-43.584 108.926-45.934 152.542-5.316zM441.096 663.708c80.964 95.288 224.264 106.93 319.522 26.018 8.856-7.528 17.12-15.744 24.68-24.416 72.588-83.568 73.14-210.506 1.288-295.082-39.186-46.112-94.020-74.238-154.39-79.16-60.308-4.876-118.938 13.984-165.11 53.16-8.822 7.538-17.118 15.76-24.672 24.45-72.588 83.644-73.17 210.49-1.318 295.030z" />
<glyph unicode="&#x29c9;" d="M1017.928 698.104c-5.672 7.49-13.946 12.434-23.3 13.848l-94.014 13.47-17.128 93.156c-3.456 19.142-21.834 31.98-41.078 28.38l-344.436-63.442-267.826 38.788c-19.306 2.588-37.212-10.588-39.93-30.066l-9.606-67.226-148.824-27.25c-9.232-1.79-17.438-6.984-22.74-14.754-5.302-7.656-7.33-17.216-5.678-26.342l106.688-579.892c1.81-9.112 7.084-17.324 14.692-22.624 6.084-4.166 13.13-6.198 20.086-6.198 2.152 0 4.4 0.096 6.49 0.562l473.7 87.154 280.764-40.43c1.688-0.104 3.336-0.386 5.082-0.386 17.218 0 32.32 12.724 34.782 30.102l10.354 71.626 5.866 1.186c19.182 3.432 31.852 21.786 28.26 41.038l-15.658 85.576 50.1 347.37c1.374 9.512-1.124 18.804-6.646 26.354zM934.462 541.872l-31.606-218.728-9.448-66.126-10.572-73.838-1.934-13.076-38.494 5.63-656.022 94.6 56.768 394.482 10.578 73.696 1.344 8.654 25.578-3.59 669.124-96.598-15.316-105.106zM820.45 771.004l6.422-34.84-110.142 15.738 103.72 19.102zM79.274 634.64l90.584 16.612-41.116-285.084-49.468 268.472zM173.218 124.18l-14.412 78.76 247.484-35.706-233.072-43.054zM401.246 499.674c37.156-5.378 71.432 20.354 76.862 57.456 5.274 37.152-20.338 71.5-57.422 76.908-37.12 5.284-71.558-20.386-76.862-57.458-5.406-37.192 20.362-71.594 57.422-76.906zM798.642 452.304l-64.352-66.66-81.168 159.99-154.252-177.112c0 0-202.818 81.474-258.656-60.122l600.84-86.484-4.52 24.614-37.892 205.774z" />
<glyph unicode="&#x29fa;" d="M953.472 650.496c-45.248 56.896-107.072 101.824-185.408 134.848s-163.52 49.472-255.552 49.472c-92.096 0-177.28-16.448-255.616-49.472s-140.096-77.952-185.408-134.848c-45.312-56.832-67.968-118.784-67.968-185.792 0-57.344 17.152-111.36 51.328-161.984 34.24-50.56 81.28-93.248 140.992-128-4.8-11.52-9.728-22.080-14.784-31.808-5.056-9.536-11.072-18.88-18.048-27.84-6.976-8.896-12.416-15.872-16.256-20.928-3.84-4.992-10.112-12.16-18.752-21.312-8.704-9.216-14.272-15.104-16.64-18.048 0 0.448-1.024-0.64-2.88-3.328-1.92-2.624-3.008-3.904-3.264-3.648s-1.216-0.896-2.88-3.584c-1.664-2.624-2.56-3.968-2.56-3.968l-1.92-3.584c-0.704-1.344-1.216-2.816-1.408-4.288-0.192-1.408-0.32-3.008-0.32-4.736 0-1.536 0.192-3.2 0.704-4.608 0.96-6.336 3.776-12.544 8.32-16.448 4.48-3.904 9.472-7.040 14.784-7.040h2.176c24.064 3.52 44.8 8.448 62.144 12.8 74.24 19.264 141.248 50.688 201.024 93.12 43.392-7.68 85.824-11.264 127.232-11.264 92.032 0 177.28 16.704 255.552 49.664 78.4 33.024 140.16 78.080 185.408 134.912 45.312 56.896 67.968 118.784 67.968 185.792 0.064 67.136-22.656 129.088-67.968 185.92zM714.624 418.816c0-12.8-9.344-24.384-22.144-24.384h-121.088v-120.896c0-12.736-11.328-22.464-24.064-22.464h-69.696c-12.8 0-21.568 9.664-21.568 22.464v120.896h-123.584c-12.8 0-23.168 11.584-23.168 24.384v69.632c0 12.8 10.368 24.704 23.168 24.704h123.648v120.512c0 12.8 8.768 22.784 21.568 22.784h69.696c12.736 0 24.064-9.984 24.064-22.784v-120.448h121.088c12.8 0 22.144-11.968 22.144-24.704v-69.696z" />
</font>
</defs>
</svg>
